<?xml version="1.0" encoding="utf-8"?>
<!-- Generator: Adobe Illustrator 22.1.0, SVG Export Plug-In . SVG Version: 6.00 Build 0)  -->
<svg version="1.1" id="レイヤー_1" xmlns="http://www.w3.org/2000/svg" xmlns:xlink="http://www.w3.org/1999/xlink" x="0px"
	 y="0px" viewBox="0 0 20 20" style="enable-background:new 0 0 20 20;" xml:space="preserve">
<style type="text/css">
	.st0{fill:#101820;}
</style>
<g>
	<g>
		<path class="st0" d="M18.6629028,9.4745483c-0.1159878,0.1435375-0.4191475,0.4163799-0.5616283,0.5799036
			c-0.0723438,0.0833769-0.1432323,0.153656-0.2119961,0.2106943c0.0875721-0.0896139,0.1505585-0.1567545,0.1891613-0.2012405
			c0.0385151-0.0443869,0.0670185-0.0830965,0.085825-0.1156721c-0.0195274,0.0224056-0.0531845,0.0611916-0.1013222,0.1167698
			c-0.0484066,0.055788-0.1071014,0.1120186-0.1758747,0.1689625c-0.0476875,0.065959-0.0980129,0.1297178-0.1509266,0.1906986
			c-0.0530815,0.0612793-0.1089268,0.1199799-0.1675224,0.176301c-0.017231,0.0534821-0.0270367,0.0985117-0.029604,0.1350946
			c-0.0027351,0.0368843-0.0132904,0.0713596-0.0317097,0.104003c-0.008976,0.0216551-0.0135555,0.1053934-0.022356,0.1268463
			l-0.013382,0.0322847c0.0065918-0.0526323,0.0238647-0.2594223,0.0680714-0.364933
			c0.0095463-0.0109005,0.0137691-0.0268688,0.0122852-0.0477848c0,0,0.1908226-0.210494,0.2427959-0.3303022
			c0.1164532-0.1230001,0.6510334-0.6773844,0.7870159-0.8227892c0.0297146-0.0229349,0.2380219-0.1918554,0.4697609-0.440299
			c0.0875721-0.0896139,0.1606598-0.1625357,0.2192402-0.2190437C19.4953613,8.5476933,19.5,8.3433542,19.5,8.3433542
			s-0.7589436,0.6873903-0.9948788,0.8919449c0.0094452-0.0109873,0.0239334-0.0276823,0.0433674-0.0500803
			c0.0192623-0.0220985,0.0431042-0.0551262,0.0712414-0.0989676c0.0497074-0.0347652,0.0966606-0.0719137,0.140852-0.1117334
			c0.0441113-0.039526,0.0858269-0.0764971,0.1251621-0.1106234c0.0192623-0.0220985,0.0434666-0.0499907,0.0724411-0.0833836
			c0.0154095-0.0273037,0.0312386-0.0500059,0.0473518-0.070076c-0.0079346,0.0056067-0.0189133,0.0126867-0.0351582,0.0223017
			c-0.0491009,0.0424814-0.0979176,0.0877628-0.1466236,0.1343098c-0.0081997,0.0041733-0.0159588,0.0078297-0.0231152,0.0107136
			c-0.0152092,0.0065212-0.0325527,0.020648-0.0517159,0.0428362l0.0011063,0.0155907
			c-0.019434,0.0223951-0.036581,0.0366058-0.0518169,0.0427494c-0.0151119,0.0065145-0.0324554,0.0206413-0.051712,0.0428362
			c-0.0551662,0.0577488-0.1109943,0.1162596-0.1673698,0.1754379c0.002388-0.0025673,0.0046959-0.0050058,0.0070858-0.0075798
			c0.0215168-0.042388,0.0563145-0.085722,0.1034641-0.1300631c-0.0371304,0.0288124-0.0674992,0.0588369-0.0906277,0.0900755
			c-0.0638275,0.0599766-0.1963139,0.2122574-0.2405224,0.2517929c-0.1152954,0.0730476-0.5223846,0.545784-0.6194878,0.6465816
			c0.0148487-0.0844612,0.0926437-0.4604979,0.0926437-0.4604979c-0.0004787-0.0067635-0.0003757-0.0158482,0-0.026
			c-0.0007858-0.0018864-0.0013657-0.0031099-0.0022087-0.0051832l-0.0011044-0.0155935
			c0.0016918,0.0029325,0.0024643,0.0049896,0.0039368,0.0077124c0.0003414-0.0053873,0.0008678-0.0114813,0.0014038-0.0176153
			c0.0028591-0.0074959,0.004467-0.0181513,0.005146-0.0310965c-0.001215,0.0047417-0.0024319,0.0094862-0.0036373,0.0142212
			c0.0010605-0.0100765,0.0024071-0.0212517,0.0039024-0.0329723c-0.0001297-0.006176-0.0001755-0.0121641-0.0006752-0.0192146
			c0.0016232-0.0039272,0.0033092-0.0080061,0.0049934-0.0120726c0.0056877-0.0378304,0.0122013-0.0660295,0.019474-0.08358
			c0.0008926,0.0125923-0.0005894,0.0277853-0.0032196,0.0442991c0.0024834-0.0060005,0.0047836-0.011549,0.0069408-0.0167561
			c0.0037689-0.01756,0.0076847-0.0352077,0.0102119-0.0520344c0.0069637-0.0474072,0.0075169-0.0396137,0.0016575,0.023386
			c0.0065994-0.0525417,0.0087986-0.0970287,0.0062103-0.1335344c-0.0025635-0.0362225-0.0045853-0.064744-0.0060654-0.08566
			l0.0066185,0.0934534c0.0042953-0.0837164,0.0330601-0.2684364,0.0413094-0.3003597
			c-0.002203-0.0310869-0.0023041-0.0675802,0.0000706-0.1095963c0.0022068-0.0417185,0.0011749-0.0940056-0.003233-0.1562757
			c0.0051575,0.0728216,0.0067177,0.1326208,0.0048904,0.1796627c-0.0010242,0.0240002-0.001442,0.0458536-0.0013256,0.0656872
			c0.0003338-0.0219173,0.0028362-0.0419512,0.0096741-0.0584431c-0.0029297-0.041357-0.0024929-0.070241,0.0017281-0.0862122
			c0.0040264-0.0159521,0.0068798-0.0134811,0.0083447,0.0072441c-0.0053024,0.0734682-0.0071239,0.1206064-0.0056572,0.1413317
			c0.001482,0.020916-0.001276,0.0575132-0.0078754,0.110055c0.0080681-0.0318165,0.0137501-0.0999613,0.01684-0.2047062
			c0.0028324-0.1043482,0.0398922-0.6617527,0.0416031-0.7386503c-0.0148659-0.6648431,0.0489578-1.4562449-0.6508446-1.8950133
			c-0.5195942-0.2457347-1.1127682,0.0350881-1.4670649,0.2839231c-0.5998573,0.4388556-1.1104393,1.3483319-1.3222389,1.8861022
			c-0.0074959,0.017293-0.0146532,0.0346394-0.0219622,0.0519609c-0.0237484,0.0386248-0.0634365,0.100275-0.0686846,0.1315517
			c-0.0184965,0.0327826-0.0338411,0.0679998-0.046628,0.1054077c-0.0121279,0.0358114-0.0261869,0.0788221-0.0418005,0.1288614
			c-0.0022955,0.0003967-0.0070953,0.0027552-0.0136938,0.0065174c-0.0024672-0.010128-0.0089884-0.0091848-0.0198956,0.0036049
			L14.2268496,8.839839V8.8397942c-0.0693531,0.0953846-0.1374044,0.3187075-0.1459694,0.3402081
			c-0.0185041,0.0326853-0.0452528,0.0923004-0.0801792,0.1784487c0.0166197-0.0533819,0.0318546-0.093751,0.0454264-0.1209908
			c0.0135946-0.0269556,0.0243006-0.0566502,0.0323429-0.0886278c-0.0104513,0.0008068-0.0236254,0.0331793-0.0395327,0.0970221
			c-0.0286674,0.0335674-0.0387087,0.0396976-0.0298691,0.0179834c0.0174246-0.0429268,0.0283384-0.0699635,0.0328503-0.0808249
			c0.0043411-0.0106621,0.0109262-0.0268459,0.019763-0.0485601c-0.0104513,0.0008078-0.0314188,0.0337839-0.0628128,0.0988216
			c-0.0404692,0.091445-0.1567698,0.3723936-0.1932983,0.4378281c-0.6197367,0.9931726-1.1484022,1.389389-1.1484022,1.389389
			s0.164835-0.974905,0.3490286-1.9473228c0.0062599-0.0525808,0.2072515-0.9295044,0.1227961-1.8575544
			c-0.0612717-0.3228779-0.0915861-0.6196523-0.5057116-0.7675276c-0.0057173-0.0047188-0.0978756-0.0159521-0.1496649-0.0119505
			c-0.6632051,0.0321784-0.8645954,0.9728155-0.8888664,1.0632071c-0.121973,0.393765-0.2438774,1.0204673-0.3427019,1.6109195
			c-0.0769205,0.1285162-0.1330442,0.2559271-0.1683884,0.3824215l-0.0156126,0.0007591l-0.0380726,0.0864029
			c-0.0179768,0.0285187-0.0344391,0.0561752-0.0475359,0.0818844c-0.019165,0.0375757-0.0195436,0.0297689-0.0011339-0.0233221
			c-0.0270777,0.0848112-0.0506363,0.1379604-0.0703793,0.1597223c0.0187387-0.0424204,0.023118-0.0582809,0.0133352-0.0475941
			c-0.0476103,0.0962086-0.0807152,0.1629906-0.0997028,0.2002687c-0.019166,0.0375757-0.0522804,0.104167-0.0997038,0.2002726
			c0.0182295-0.0528917,0.0368357-0.0979757,0.0560017-0.1355476c0.0188875-0.0373716,0.0379944-0.072176,0.0574188-0.1044188
			c-0.0104713,0.0005102-0.0323687,0.0328722-0.0656061,0.0969906c-0.0335188,0.0641298-0.0457087,0.0803728-0.0367556,0.0486403
			c0.0286999-0.053401,0.0451717-0.0854988,0.0500908-0.0962343c0.0045471-0.0104322,0.0162268-0.0371456,0.03514-0.0798597
			c-0.0204344,0.0114918-0.0493803,0.059844-0.0867453,0.1449652c-0.0295658,0.0670176-0.0631905,0.1341066-0.0990343,0.2012863
			c-0.0022964,0.0024061-0.0072412,0.009922-0.0151415,0.0231609c-0.0285931,0.0535879-0.0526581,0.0963602-0.0718946,0.1285
			c-0.0194244,0.0322428-0.587348,1.0752668-0.7799625,1.3199158c-0.0291939,0.0432148-0.1721821,0.236268-0.1803188,0.1495161
			c-0.0780249-0.5514784,0.0495548-1.4407711,0.0644312-1.566493c0.0256605-0.1158495,0.2180357-1.3098202,0.2772121-1.6941223
			c0.0653868-0.3352118-0.0431118-0.8330302-0.094265-0.9725113c-0.0536432-0.1318235-0.1068087-0.329618-0.5100555-0.5224199
			C9.2499208,7.1098928,9.1649523,7.0875072,9.015233,7.0689006c-0.520421-0.051599-0.9465256,0.1923561-0.9672022,0.2034535
			C7.4226394,7.5922408,6.9774241,8.2937613,6.9072251,8.4065838c-0.5823903,0.8471804-0.888741,2.0172644-0.9710388,2.5329332
			c-0.2431993,1.2617998,0.1822886,1.8585434,0.5250096,2.1162539c0.1402049,0.1103354,0.4869761,0.3358412,1.0095963,0.185421
			c0.1847496-0.0570059,0.630446-0.1963511,1.0130811-0.7058773c0.0907173,0.331356,0.3289394,0.4623203,0.4545069,0.5260143
			c0.0957375,0.0446777,0.1729059,0.0530977,0.2769537,0.0480366l0.0623503-0.0030327
			c0.0207548-0.0010109,0.0311098-0.0039015,0.0308447-0.0093279c-0.0002451-0.0050449,0.0047674-0.0079613,0.0152378-0.0084686
			l0.0468349-0.0022802c0.0820007-0.0247917,0.2466679-0.1214457,0.2817049-0.1544476
			c0.1132326-0.0953846,0.1818295-0.1956053,0.2436504-0.293251c0.0123835-0.0195532,0.0041313-0.0210028-0.0156126,0.0007591
			c-0.1823111,0.1747732-0.3146639,0.2810555-0.3146639,0.2810555c-0.0702868,0.0557098-0.1709652,0.0978746-0.2761755,0.107235
			l-0.0467405,0.0022736c-0.0209427,0.0010204-0.0340071-0.0007296-0.0394096-0.0059071
			c-0.0055819-0.00488-0.0186586-0.0069151-0.0393162-0.0059109c0.0206575-0.0010042,0.0415411,0.0006495,0.0627346,0.0047741
			c0.0210161,0.0044146,0.050004-0.0037889,0.093195-0.0123606c0.1324987-0.0239677,0.2349892-0.0947361,0.2746611-0.1383638
			c0.0665464-0.0485239,0.1744947-0.1594439,0.1944132-0.1815004c0.0099316-0.0108938,0.0199013-0.0219202,0.0298271-0.032876
			c0.0186577-0.0424557,0.0526962-0.0908861,0.1022415-0.1454983c0.0284443-0.0420227,0.0510073-0.074934,0.0679121-0.0990572
			C9.9860678,12.4192657,9.982399,12.425066,9.9796696,12.431241c-0.0291967,0.0432148-0.0560493,0.0835485-0.0800791,0.1211653
			c-0.0240126,0.0373716-0.0506296,0.0719404-0.0798206,0.1043377c0.0095186-0.0105028,0.0189886-0.0209322,0.028594-0.0315189
			c0.0297041-0.0327435,0.0566273-0.0677347,0.0809317-0.1055584c0.0240326-0.0375271,0.0458012-0.0725546,0.0652246-0.1047974
			c0.0049286-0.0112171,0.010623-0.0211964,0.0159712-0.0317421c0.0059137-0.008029,0.0102739-0.0136356,0.0128841-0.0165138
			l-0.0102711,0.0113201c0.0141792-0.0273199,0.0292559-0.0531712,0.0462637-0.0756664
			c0.0242815-0.032382,0.0461788-0.0647478,0.0656033-0.0969906c-0.0194244,0.0322428-0.0435734,0.0673895-0.0730314,0.1051779
			c-0.0203447,0.0263062-0.0371847,0.0540533-0.0524168,0.0824528l-0.0206156,0.0227213
			c-0.0099602,0.0109816-0.0151024,0.0112305-0.0156097,0.0007591c0.0388842-0.053895,0.0777931-0.1132298,0.1164532-0.1776114
			c0.0383701-0.0644636,0.077034-0.1288462,0.115694-0.1932249c0.0971937-0.1400337,0.1688232-0.2740536,0.214922-0.4012966
			c0.1525526-0.2888165,0.2798157-0.5659056,0.3816795-0.8315487c0.0557842-0.1380205,0.1141596-0.2737808,0.1756058-0.4072094
			c0.0502491-0.109354,0.0946712-0.2240725,0.1340265-0.3436394c-0.0307961,0.2182941-0.0537376,0.395793-0.0662136,0.5035191
			c-0.1090021,0.7232733-0.0770884,1.3327808,0.0975418,1.6682768c0.3710527,0.7335377,1.1401176,0.3537903,1.5009871,0.1121836
			c0.229495-0.1604786,0.740078-0.6551027,0.9170275-1.1045742c0.028758-0.033577,0.0330086-0.0441351,0.013175-0.0323725
			c-0.0295467,0.023407-0.0558434,0.0566988-0.0783939,0.1001167c-0.0228281,0.0435381-0.0585718,0.0881701-0.1071634,0.1335068
			c-0.0279541,0.0440283-0.056324,0.0826397-0.0849886,0.1162071c-0.0287609,0.033577-0.052784,0.0616274-0.0718107,0.0838385
			c0.0659971-0.0885506,0.125186-0.1687365,0.1771688-0.2407188c0.0517159-0.0717688,0.0960121-0.1405754,0.132822-0.2060308
			c0.0469732-0.0663395,0.084197-0.1264744,0.1113396-0.180954c0.027072-0.0541897,0.0542383-0.1083851,0.0813847-0.1628685
			c-0.032217,0.0473776-0.0617218,0.0989285-0.0894003,0.1534109c0.0015535-0.0040436,0.0030355-0.0087461,0.0046444-0.0122986
			c0.0016661-0.0030909,0.0033264-0.0062914,0.0049925-0.0093889c0.0033884-0.0062428,0.0067701-0.0125675,0.0103579-0.016717
			c-0.0014334,0.0016565-0.0032196,0.0042534-0.004734,0.0061426c0.0927172-0.1729612,0.1845522-0.3565836,0.2757359-0.5517817
			c0.0058813-0.0126123,0.0113688-0.0252895,0.0171757-0.0379143c-0.0244493,0.2607594-0.0296431,0.4879675-0.0218143,0.6637001
			c0.0280285,0.3127775,0.0535564,1.3467073,1.1817694,1.4347115l0.1557236-0.0110321
			c-0.5733757,0.8463335-0.7230797,1.3928375-0.7496443,1.5716124c-0.0981693,0.4916105-0.171566,1.1777058,0.0752182,1.6149435
			c0.0840321,0.1509953,0.3403864,0.628603,0.9414225,0.5828342c0.4328966-0.0818787,0.6816664-0.6144857,0.8009481-0.8472786
			c0.1808224-0.3323507,0.5446148-1.2960777,0.6468258-1.6972322c0.2069111-0.6702976,0.389843-1.4181719,0.5493851-2.2412682
			c-0.0283489,0.1114368-0.0516911,0.2086143-0.0692577,0.2895565c-0.0197906,0.0901623-0.0439949,0.151783-0.0729694,0.1851759
			c0.0170555-0.0532818,0.174902-0.7463598,0.2521095-1.0823374c0.0065041-0.0525322,0.0132847-0.1051807,0.0200577-0.1579227
			l-0.014492,0.0166006c0.0095463-0.0109005,0.0141296-0.0217361,0.0133877-0.0321941l-0.0144863,0.0166979
			c0.0095406-0.010994,0.016407-0.0246658,0.0206261-0.040637c0.0040302-0.015955,0.01091-0.0294361,0.0206242-0.0406342
			l0.0022087,0.0311842c-0.0014648-0.0207262,0.0029278-0.0315456,0.0133858-0.0322886
			c-0.0097198,0.011198-0.0141048,0.0221148-0.0133858,0.0322886c0.1654892-0.2495785,0.7602425-0.831213,0.916214-0.9884481
			c0.0488758-0.0451193,0.6332474-0.6735439,0.7063198-0.7466536c0.0730877-0.0729218,0.1931896-0.2563725,0.1931896-0.2563725
			C19.3889446,8.75,18.7110462,9.4190674,18.6629028,9.4745483z M18.8969269,8.8005199l-0.0433674,0.0500813
			c-0.0023994,0.001421-0.0044079,0.002409-0.0067329,0.003746C18.8644485,8.8363609,18.8814049,8.8184099,18.8969269,8.8005199z
			 M18.7079582,8.9809837c-0.0651855,0.0663948-0.1194878,0.1244431-0.1616726,0.1731482
			C18.5905628,9.0924397,18.6447773,9.034976,18.7079582,8.9809837z M11.1848965,9.5030193
			c-0.0001612,0.0010328-0.0003319,0.002099-0.000494,0.0031328c-0.0007753,0.0017757-0.0015373,0.00385-0.0023127,0.0056067
			C11.183095,9.5088425,11.1839085,9.5059319,11.1848965,9.5030193z M11.0839052,9.7432566
			c0.0090265-0.0263004,0.018096-0.0556526,0.0270519-0.0872917c0.0257711-0.0461273,0.0497131-0.0939989,0.0723925-0.1430664
			c-0.0049868,0.0318718-0.0098734,0.0634365-0.014679,0.0946684c-0.039588,0.070241-0.0771532,0.1442318-0.111721,0.2229738
			C11.0656176,9.7988214,11.0747032,9.7698469,11.0839052,9.7432566z M11.0873184,9.8134136
			c0.0199862-0.0535173,0.0464287-0.1173344,0.0790138-0.1906052c-0.0032625,0.0212641-0.0064306,0.0421677-0.0096025,0.0630865
			c-0.0082064,0.0157232-0.0169849,0.0314713-0.0263672,0.0472746c-0.0047579,0.0107975-0.0082073,0.0201473-0.0104198,0.0281019
			c-0.0056944,0.0154257-0.0101862,0.0277567-0.0135136,0.0370684C11.1048985,9.7962379,11.0989561,9.8006458,11.0873184,9.8134136
			c0.0005112,0.0104704-0.0017757,0.0184059-0.0066662,0.023797c-0.003459,0.0038137-0.0032263,0.0008364,0.0001001-0.0079422
			c-0.0081549,0.0195341-0.0172367,0.0425072-0.0281954,0.0718107c-0.013833,0.0373135-0.0258284,0.0613689-0.0356121,0.0721502
			c0.0182257-0.0529842,0.0296917-0.0820723,0.034853-0.0877628C11.0565968,9.8801765,11.0684052,9.8561268,11.0873184,9.8134136z
			 M11.1170235,9.7806702c0.0005169,0.0105677-0.0043058,0.0212965-0.0140915,0.0319843
			C11.1076374,9.8020153,11.1123009,9.7914448,11.1170235,9.7806702z M10.8271446,10.4733248l-0.0182943,0.0415192
			C10.800786,10.523654,10.8070326,10.5095339,10.8271446,10.4733248z M10.3688965,11.4352007
			c0.0189848-0.0373716,0.0378437-0.0773172,0.056757-0.1200314c0.0378761-0.0746469,0.0712652-0.1414452,0.0997038-0.2002716
			c0.0283537-0.0585365,0.0523481-0.0988255,0.0722694-0.1207876c-0.038147,0.0749502-0.0761776,0.1522779-0.1137953,0.2322569
			c-0.0379009,0.0799913-0.0807152,0.1629906-0.1285515,0.248621c-0.0094528,0.0214529-0.0289478,0.0482597-0.0586529,0.0810032
			C10.3258343,11.5130606,10.3497343,11.4727764,10.3688965,11.4352007z M10.3719521,11.4889736
			c-0.0028133,0.0063982-0.0054255,0.0123472-0.0073509,0.0167627c-0.0049152,0.0107355-0.0024967,0.0055609,0.0069504-0.0159874
			C10.3716841,11.48948,10.3718195,11.4892416,10.3719521,11.4889736z M9.3975611,11.8733034
			c0.0063143,0.025835,0.0102119,0.0491219,0.0112171,0.0697765c0.0020313,0.0416965,0.0142431,0.0828953,0.0372,0.1232872
			c0.0232935,0.051156,0.0506306,0.0756865,0.0817585,0.074172c0.0317326,0.0089493,0.0678482,0.0020409,0.1084309-0.0209265
			c0.020257-0.0111942,0.0353594-0.0224276,0.0453196-0.0334053c0.0096865-0.0107775,0.0247889-0.0220079,0.0452204-0.0334988
			l0.0148535-0.0163717l0.0075645-0.0083199l0.0072899-0.0080519c0.0197468-0.0216656,0.0368834-0.0459728,0.0511303-0.0728121
			c0.0143566-0.0265589,0.031045-0.0561857,0.0504684-0.0884285c0.0483465-0.07516,0.0892191-0.1450844,0.1227407-0.209218
			c0.0332346-0.0641184,0.0645962-0.1177416,0.0937967-0.1608591c0.0091753-0.0212488,0.009305-0.0185843,0.0003738,0.0077095
			c-0.0092983,0.026597-0.0234251,0.0559101-0.0426588,0.0881433c-0.0199213,0.0219622-0.0317326,0.0459146-0.035614,0.0720568
			C9.992589,11.6829023,9.995635,11.6905756,10.005599,11.679595c-0.0672541,0.1180639-0.1404152,0.2205744-0.2194767,0.307723
			l-0.0369968,0.040699l-0.0371752,0.0410566c-0.029707,0.03265-0.065238,0.0554647-0.1061525,0.067667
			c-0.0302048,0.02246-0.0614309,0.0239811-0.0935764,0.0045509c-0.021533-0.00916-0.0348949-0.0190077-0.0405502-0.0293236
			c-0.005826-0.0099277-0.0195303-0.0249081-0.0413017-0.0448418c-0.0119925-0.030715-0.0190525-0.0718794-0.0215912-0.1240463
			c-0.0120792-0.030612-0.0194044-0.0772047-0.022438-0.139555C9.3873577,11.8244667,9.3908787,11.8477697,9.3975611,11.8733034z
			 M8.5743484,7.3248959L8.5431328,7.3264141C8.5563688,7.325768,8.5675821,7.3252254,8.5743484,7.3248959z M8.5431261,7.3264141
			C8.5226917,7.3379054,8.491847,7.34723,8.4506874,7.3543873C8.4427385,7.3557987,8.4359627,7.3576813,8.428421,7.3592544
			c0.0365191-0.0196304,0.067131-0.0305247,0.0912867-0.0317001C8.5288668,7.3271084,8.535882,7.326766,8.5431261,7.3264141z
			 M8.4221516,8.8565407C8.4365082,8.8299818,8.4439373,8.8217974,8.444437,8.832078
			C8.434474,8.8430595,8.429842,8.8537788,8.4303398,8.863966c0.0005064,0.0104704-0.0043125,0.021203-0.0140953,0.0319843
			c-0.00945,0.021452-0.0191622,0.0375719-0.0288544,0.0482521L8.3866377,8.9286871
			C8.395813,8.9074383,8.4078083,8.8833828,8.4221516,8.8565407z M8.2718248,7.4135985L8.2201138,7.4359293
			C8.2329712,7.4287624,8.2505312,7.4212823,8.2718248,7.4135985z M7.7338672,11.2585421
			c-0.0028486-0.0585985-0.0002875-0.1031885,0.0074382-0.1347466C7.7418737,11.1715279,7.7400036,11.217104,7.7338672,11.2585421z
			 M7.7455268,11.0157042c-0.0032749,0.0211458-0.0043473,0.04004-0.0042796,0.0576296
			c-0.0012755-0.0592155,0.001431-0.1026068,0.0086656-0.1282644C7.7509332,10.9660139,7.7494054,10.9895592,7.7455268,11.0157042z
			 M7.7624927,10.881959c0.0076609-0.0523767,0.0153446-0.1101933,0.0228767-0.1730604
			c0.00457-0.0402365,0.0121665-0.0805769,0.0211482-0.1209784c-0.0008492,0.0063343-0.0021253,0.0115824-0.002758,0.0184612
			c-0.0035529,0.0368137-0.0097251,0.070797-0.0183902,0.1025171C7.7879047,10.7609682,7.7801142,10.8186007,7.7624927,10.881959z
			 M8.3533802,11.2987232c-0.1280088,0.2617636-0.2632818,0.427125-0.4058018,0.4965591
			c-0.0510468,0.023571-0.0928173,0.0201635-0.1254606-0.0094509c0.0101867-0.000494,0.0099378-0.0056353-0.0007591-0.0156088
			L7.804987,11.7553682c-0.0005007-0.0102797-0.0034237-0.0154829-0.0085654-0.0152311
			c-0.0053291,0.0002584-0.0080552-0.0047607-0.0085654-0.0152321l0.0327435,0.0297041
			c0.0206575-0.0010042,0.0255475-0.0063944,0.014854-0.0163717L7.834691,11.7226248l-0.0123763-0.0112267
			c-0.0029068-0.0075607-0.0044961-0.0139561-0.0047479-0.0191422c-0.0005007-0.0102806,0.0045443-0.0105267,0.0156093-0.0007591
			l-0.0022769-0.0468349c0.0010176,0.0209417,0.0063143,0.0258379,0.0162749,0.0148563
			c-0.0114784-0.0202436-0.0175314-0.0406561-0.0185485-0.0615978l-0.0030394-0.0624475
			c0.0015182,0.0312252,0.0075836,0.0519218,0.0185552,0.0616913l-0.0015182-0.0312223
			c-0.0005002-0.0102797,0.0043797-0.0158615,0.0148506-0.0163717l0.0022802,0.0468349
			c0.0010853-0.9002447,0.4438844-2.1299696,0.5925088-2.4022112c0.1177835-0.2320366,0.404213-0.5999336,0.4939852-0.6523724
			L8.9492874,8.604269C8.9307842,8.6573629,8.913414,8.7259569,8.8967066,8.8100739
			c0.0030327,0.0623503-0.0146112,0.1311483-0.052494,0.2057009C8.7945166,9.278882,8.7191334,9.5534458,8.6185579,9.8397331
			C8.6000576,9.8929243,8.5894804,9.9402885,8.58636,9.9820433c-0.0033073,0.0418615-0.0142231,0.0841846-0.0329628,0.1266041
			c-0.0199175,0.0220566-0.031765,0.0433407-0.0358953,0.0643435c-0.004406,0.0212069-0.0111074,0.0423326-0.0203838,0.0634909
			c-0.017909,0.0633717-0.026413,0.1004267-0.0259123,0.1107073c-0.0265741,0.0950909-0.0588274,0.1853056-0.0962896,0.2704296
			c0.011301,0.0204411,0.0149765,0.0410662,0.0108461,0.0620661c-0.0043116,0.021204-0.0013952,0.0262127,0.0085621,0.0151386
			c0.0197468-0.0216656,0.0388508-0.0565672,0.057519-0.1043253c0.0183773-0.0478392,0.0374947-0.0824528,0.0574188-0.1044159
			c-0.0376425,0.0853243-0.0628223,0.1542025-0.0759096,0.2068415c-0.0012398,0.0050192-0.0028067,0.0100317-0.0040951,0.0150509
			c0.0036144-0.0053358,0.0074768-0.0105324,0.0119019-0.0154285c-0.0094471,0.0215454-0.0163784,0.039917-0.0207605,0.0557785
			c-0.0028458,0.0098791-0.0069284,0.0212002-0.0115957,0.0331726c-0.0021572,0.0071278-0.004612,0.0142565-0.0068626,0.0213842
			c0.0089369-0.0016794,0.0157995-0.0089273,0.0199795-0.0233316c0.0043793-0.0158615,0.0071764-0.0133257,0.0081835,0.0074253
			c-0.0481138,0.0858345-0.0908108,0.1712141-0.1282701,0.2563372c-0.037549,0.0853186-0.0805864,0.165659-0.128933,0.2408161
			c-0.0189199,0.0426197-0.0404396,0.0827885-0.0644722,0.1203117c-0.0243044,0.0378246-0.0460825,0.0726643-0.0653191,0.1048002
			c-0.0250988,0.0419617-0.0531173,0.0742722-0.0834546,0.0987825c0.0006752-0.0001774,0.0016184-0.0010042,0.0022349-0.0010328
			c0.0051417-0.0002489,0.0127029-0.0056753,0.0226636-0.0166569c0.0302148-0.0222721,0.0644565-0.065732,0.1031175-0.1301107
			c0.0393934-0.0434246,0.0734091-0.0973721,0.1015949-0.1613379c0.0488472-0.0648766,0.087389-0.1317329,0.1152191-0.2010241
			c0.0279408-0.0690136,0.0560017-0.1355505,0.0840912-0.1995134c0.0479326-0.0856342,0.0854568-0.1734324,0.1122828-0.263382
			c0.0269299-0.0897646,0.0552387-0.1511631,0.0848494-0.1838999c-0.0010109-0.0207548,0.0033722-0.0366163,0.0133324-0.0475969
			c-0.000494-0.0101833,0.0014696-0.0207777,0.0062923-0.0315065c0.0046406-0.0105324,0.0067949-0.0211325,0.0062847-0.0316038
			c0.0091791-0.0212488,0.0137138-0.0397902,0.0129614-0.0553064c-0.000762-0.0156126,0.0034981-0.0339479,0.0129509-0.0554008
			c0.0373659-0.0851202,0.0611753-0.133131,0.0711393-0.1441126c-0.0376434,0.0853243-0.0606937,0.1489477-0.0688591,0.1909485
			c-0.0094528,0.021452-0.013833,0.0373135-0.013339,0.0474997c0.0005112,0.0104713-0.0041561,0.0263453-0.0133324,0.0475941
			c0.0005102,0.0104713-0.0017757,0.0184069-0.0066729,0.0237036c-0.005064,0.0056839-0.0071602,0.0136099-0.0066662,0.023797
			l-0.0133324,0.0475969c-0.0280952,0.0638657-0.0539045,0.1276217-0.0766649,0.1913261
			c-0.0230474,0.0636196-0.0484724,0.1274529-0.0766649,0.1913252c-0.1028757,0.2448912-0.2073364,0.4532185-0.3134823,0.6249847
			c0.0201569-0.0112848,0.0495996-0.0493612,0.0882626-0.11374c0.0052614-0.0121861,0.0117435-0.0244169,0.018856-0.0367231
			c0.0190268-0.020215,0.0421448-0.0405693,0.0701666-0.0614071c0.008666-0.0317202,0.0225153-0.0687494,0.0414286-0.1114635
			c0.0107908,0.0099735,0.0090752,0.0257063-0.0055323,0.047123c-0.0145893,0.0217972-0.0216398,0.0376911-0.0211391,0.0479746
			c0.0286999-0.053401,0.0547285-0.1067667,0.0782738-0.160203c0.0232735-0.0531359,0.0494995-0.1064148,0.0781832-0.1601
			c0.0196495-0.021759,0.0364122-0.0537758,0.0499935-0.0962315c0.0135975-0.0421715,0.0250244-0.0740232,0.0344782-0.0954752
			c0.0091753-0.0212488,0.0158482-0.0449524,0.019908-0.0712938C8.576416,10.636632,8.5830851,10.6129284,8.592536,10.591383
			c-0.0125351,0.0626602-0.0203838,0.098938-0.0238171,0.1092539c0.0188465-0.0113239,0.0303669-0.0296211,0.0342817-0.0549936
			c0.0038853-0.0260487,0.0154285-0.0555201,0.0348549-0.0876694c0.0373659-0.0851212,0.0611725-0.1332254,0.0711327-0.144206
			c0.0012894-0.0037336,0.0026646-0.007926,0.003973-0.0117664c-0.0022097,0.0103931-0.0035782,0.0198565-0.0032139,0.027379
			C8.6001253,10.747407,8.4814024,11.0372467,8.3533802,11.2987232z M8.8334675,10.0794659
			c-0.0185032,0.0530977-0.0368843,0.1009378-0.0556202,0.1433573c-0.0189133,0.0427141-0.0327625,0.0797434-0.0414286,0.1114626
			c-0.0019541,0.0043926-0.0033331,0.0081654-0.0050707,0.0123253c0.012125-0.0373297,0.0249405-0.0781317,0.0386934-0.1234102
			C8.7924004,10.1493101,8.8134489,10.1014357,8.8334675,10.0794659z M8.2438135,11.2962303
			c-0.0031815,0.0070829-0.0078449,0.0142365-0.0131836,0.021368C8.23489,11.3104992,8.2390013,11.3034229,8.2438135,11.2962303z
			 M11.0205202,10.2075043c-0.0788193,0.2019262-0.1649475,0.4145126-0.2581787,0.6379423
			c-0.0939217,0.2131586-0.1928654,0.4290438-0.2967386,0.6475506c-0.1042376,0.218811-0.2138758,0.4247198-0.3295727,0.6179438
			c-0.0667496,0.1283455-0.149209,0.257452-0.2469034,0.3872051c-0.0974684,0.1403341-0.2015934,0.2496939-0.3123875,0.3278904
			c-0.0598154,0.0552006-0.1389456,0.1188173-0.2746572,0.1384573l-0.0935764,0.0045538
			c-0.0521669,0.0025387-0.0994062-0.0054674-0.1418352-0.0243979c-0.0317202-0.0086651-0.0690336-0.0224981-0.1114626-0.0414248
			c-0.1285162-0.0620861-0.1765728-0.1353216-0.2370148-0.2216434c-0.0669041-0.0905399-0.1112909-0.1887026-0.1475782-0.2912292
			l0.0156136-0.000762c0.0183477,0.0552416,0.1192007,0.3526239,0.3518486,0.4831686
			c0.1343327,0.0816679,0.2435865,0.0819454,0.3165045,0.0783987l0.0467415-0.0022736
			c0.020752-0.0010109,0.0361156-0.0069113,0.0460758-0.0178928c0.0824175-0.0100737,0.1833582-0.0870686,0.2129688-0.1198082
			c0.0604324-0.0444489,0.1003237-0.0776863,0.1202478-0.0996485c0.0498648-0.043932,0.0896616-0.0849915,0.1191072-0.123064
			c0.029459-0.0377884,0.1463289-0.2049265,0.1757717-0.2429991c0.0294552-0.0378857,0.0584393-0.0834732,0.0871258-0.1371584
			c0.0478363-0.0856314,0.0957699-0.1712656,0.1437902-0.2570944c0.0479326-0.0856342,0.0957689-0.1712618,0.1438799-0.2571898
			c0.0478363-0.0856314,0.0906277-0.1710138,0.1281767-0.2563343c0.0374594-0.085124,0.0750179-0.1702518,0.1126547-0.2556725
			c0.0745077-0.1807222,0.1445065-0.3482513,0.210084-0.5026827c0.048008-0.1133041,0.0924625-0.2246437,0.1351337-0.3350439
			c-0.0095053,0.0229282-0.0195398,0.0466347-0.0307531,0.0720463c-0.0330086,0.0746946-0.0681486,0.1545544-0.1055145,0.2396755
			c-0.0376425,0.0853243-0.070344,0.1623926-0.0981884,0.2314005c-0.0279274,0.0692949-0.0513563,0.1251116-0.0699921,0.1676216
			c0.0181284-0.0529804,0.0341291-0.1006107,0.0477133-0.1430655c0.0047607-0.0147638,0.0102091-0.0296268,0.0155745-0.0444775
			c-0.0200253,0.0466633-0.0464182,0.1039925-0.0796595,0.1726894c-0.0095921,0.0277147-0.0206451,0.0562239-0.0329018,0.0853758
			c0.0033655-0.0091333,0.004961-0.0163355,0.0047121-0.0215034c-0.048111,0.085928-0.0909376,0.168643-0.1285543,0.2486219
			c-0.0379019,0.0799913-0.0808125,0.1629028-0.1286516,0.2485313c-0.0752897,0.1705513-0.3769569,0.7022209-0.4470663,0.7722301
			c-0.0199242,0.0219622-0.0833731,0.1083488-0.1031199,0.1300173c-0.0286875,0.0536852-0.2001371,0.2435417-0.3286629,0.3130331
			c-0.0111713,0.0043602-0.0237484,0.0102425-0.0362406,0.0160294c0.0125179-0.0093307,0.0245266-0.0195656,0.0354824-0.031642
			c0.0404043-0.0226727,0.0657253-0.0395517,0.0756893-0.0505333c0.0603352-0.0444441,0.0951815-0.0774364,0.1046352-0.0988884
			c-0.0297041,0.0327435-0.0852337,0.0720854-0.1663237,0.1175375c-0.1288395,0.0896978-0.3777485,0.1200123-0.5161409-0.0061846
			c-0.0546904-0.0493412-0.2222061-0.1865358-0.2537184-0.3941431c-0.0015154-0.0311289-0.0083656-0.0620928-0.0201674-0.0928173
			l-0.0007582-0.0156126c0.049509,0.1644793,0.118784,0.3017578,0.2076416,0.4120359
			c0.0886774,0.1104746,0.2162533,0.1614237,0.3826513,0.1533298c0.1138334-0.015748,0.2303247-0.0866842,0.3493032-0.2124157
			c0.1189919-0.1254482,0.2462578-0.2907028,0.3823862-0.4954185l0.0280933-0.0638695l0.0578966-0.096612
			c0.0493507-0.0545025,0.083477-0.1003428,0.1027365-0.1379175c0.0188904-0.0372753,0.0715132-0.1158457,0.1011238-0.1690435
			c0.0187397-0.0424204,0.0427942-0.0853863,0.0719891-0.1286001c0.0223846-0.0330048,0.0407333-0.0659971,0.0570469-0.0989151
			c-0.0058813,0.0080872-0.0135775,0.0175114-0.0231028,0.0282955c0.0408735-0.080802,0.0819397-0.1570053,0.123559-0.2262621
			c0.0480881-0.0804892,0.0910082-0.1632071,0.1285515-0.248621c-0.0285902,0.0536814-0.0453491,0.0857954-0.0499907,0.0963278
			c-0.0048189,0.0107288-0.0072966,0.010849-0.007803,0.0003777l-0.0289516,0.0482597
			c0.0281897-0.0638723,0.0443802-0.1037798,0.0489502-0.1196508c0.0043793-0.0158644,0.0069313-0.0183735,0.0074253-0.0081873
			c0.0363607-0.1057749,0.0790453-0.1914415,0.1281767-0.2563314c0.0092726-0.0212517,0.0115595-0.0291872,0.0066662-0.023797
			c-0.0050707,0.0055876-0.0030422-0.0076771,0.0059137-0.0393162c0.0197411-0.0217619,0.0339642-0.0510788,0.0426559-0.0881433
			c0.0048056-0.0209713,0.0120182-0.0388508,0.0205765-0.0549936c0.0089273-0.0237226,0.0180616-0.0476685,0.0279026-0.0723658
			c0.0230246-0.0582752,0.0442829-0.103776,0.0637074-0.1360197c0.0197439-0.0217619,0.0366354-0.0511141,0.0504684-0.0884275
			c0.0138426-0.0371265,0.0296917-0.0820751,0.0480947-0.1352596c0.0182285-0.0528908,0.0368576-0.0955915,0.0563822-0.1277447
			c0.0071926-0.0121145,0.0143461-0.0256834,0.0215034-0.039258c-0.0073605,0.0124121-0.0123892,0.0178089-0.0148373,0.015461
			c-0.0056782-0.0048771-0.0131035,0.0033073-0.0222788,0.0245562c0.0181284-0.0529814,0.0460663-0.1219921,0.0837088-0.2073164
			c0.0067053-0.0152769,0.0131226-0.0294418,0.0195627-0.0436983c-0.0012789,0.0084877-0.0024862,0.016675-0.0037498,0.0250988
			L11.1326361,9.779911l-0.0422783,0.0959501l0.0573292-0.130024c-0.0112267,0.0748463-0.021801,0.146925-0.0317268,0.2158461
			C11.0852776,10.0410452,11.053648,10.122571,11.0205202,10.2075043z M10.5161972,11.2482643
			c0.0191364-0.0322294,0.0360279-0.0615816,0.0503721-0.0884247c0.0020056-0.0037241,0.00352-0.006918,0.0052347-0.0103292
			c-0.0084515,0.0192366-0.0166616,0.0383415-0.0262833,0.0582047c-0.0284348,0.0588264-0.0521164,0.1095018-0.0708485,0.1520157
			C10.464201,11.3602409,10.4780436,11.3231182,10.5161972,11.2482643z M14.2540503,8.8447809
			c-0.0004358,0.0080223-0.0006485,0.0154734-0.0014172,0.024375c-0.0030069,0.0315876-0.0138302,0.0585175-0.0329475,0.0808344
			C14.2358799,8.9210062,14.2468262,8.8853178,14.2540503,8.8447809z M13.9254665,10.1081562
			c0.0253277-0.0567207,0.0505552-0.1152058,0.075696-0.1753378c-0.0094633,0.058588-0.0180225,0.116188-0.025712,0.1727057
			c-0.0343781,0.076107-0.0687685,0.1515799-0.1031752,0.2260265c-0.0627518,0.1355209-0.1307611,0.2685814-0.2040997,0.3994751
			c-0.0184975,0.0327816-0.0338421,0.067996-0.046628,0.1054068c-0.0127649,0.0376911-0.0380564,0.0839996-0.0753899,0.1389837
			c-0.0279541,0.0440283-0.0513821,0.079772-0.0701027,0.1072187c-0.0188904,0.0276537-0.0377073,0.0526228-0.0568275,0.0748434
			c-0.0088367,0.0217113-0.0201607,0.0434246-0.0340548,0.0652418c-0.0139627,0.0222044-0.0302181,0.049367-0.0485239,0.0821333
			c-0.018507,0.0326881-0.05159,0.0771141-0.0993776,0.132905c0.0733385-0.1308928,0.1148863-0.2018766,0.1245241-0.213233
			c-0.0192814,0.0226183-0.0449934,0.0610237-0.0771942,0.1156101c-0.0324659,0.0548897-0.0725574,0.1100864-0.1203356,0.1659718
			c-0.0287676,0.0334797-0.0576162,0.0646734-0.0867939,0.0928335c-0.0291586,0.0284443-0.0533876,0.0538311-0.0724144,0.076045
			c-0.0226507,0.0454626-0.0507145,0.0718174-0.0833092,0.0815039c0.132863-0.13871,0.2715664-0.3179655,0.4160757-0.5378523
			C13.5291529,10.927309,13.7252817,10.5570345,13.9254665,10.1081562z M12.7937136,11.8792467
			c0.028264-0.0245752,0.0569153-0.0518379,0.0857439-0.0803185c-0.0125866,0.0203314-0.025773,0.0407019-0.0401945,0.0611238
			c-0.0236292,0.0331793-0.0605774,0.0622253-0.1107655,0.0869427c-0.0185032,0.0326881-0.0450001,0.0609264-0.0796041,0.0844393
			c-0.0348749,0.0237226-0.0722342,0.0474482-0.1119766,0.0712614c-0.0998354,0.0600996-0.1647987,0.0964737-0.1951818,0.1090469
			C12.4716692,12.1390915,12.6224613,12.0283136,12.7937136,11.8792467z M12.7093554,12.1050501
			c-0.1270046,0.114295-0.2164116,0.1732998-0.2682009,0.1773014c0.1197691-0.0718651,0.2357836-0.1564436,0.3484058-0.2539473
			c0.0258083-0.0223341,0.0513792-0.0455303,0.0768166-0.0692234C12.823802,12.0102882,12.7717829,12.0590353,12.7093554,12.1050501
			z M12.9233179,11.9042034c0.0350332-0.03442,0.0698051-0.0698214,0.1041412-0.1068802
			c-0.0062628,0.0087242-0.012948,0.0165138-0.0187616,0.0262165
			C12.9895773,11.8552465,12.9607449,11.8818884,12.9233179,11.9042034z M13.5018616,11.213706
			c0.0191202-0.0222206,0.0332956-0.0416708,0.0425453-0.0580616c0.0076838-0.0140333,0.0199995-0.0306149,0.0352888-0.0491123
			C13.5566349,11.1439133,13.5309649,11.1797895,13.5018616,11.213706z M13.7329197,10.7573767
			c-0.1085272,0.2173481-0.2235947,0.4193325-0.3447113,0.6061068c-0.1125507,0.1652746-0.2127028,0.288106-0.3005114,0.3678265
			c-0.0025225,0.0019894-0.0046864,0.0048189-0.0071669,0.0069151c0.0119667-0.0135326,0.0240459-0.0266294,0.0359287-0.0404921
			c0.094758-0.1221275,0.1892061-0.2519712,0.2830315-0.3898954c0.0936508-0.1377172,0.1817627-0.2827501,0.2639313-0.4354477
			c0.072547-0.1411543,0.1424875-0.2850704,0.2094831-0.4312429c0.0269909-0.0588503,0.0547447-0.1170406,0.0826273-0.1751251
			c-0.0035143,0.0313768-0.0067797,0.0623636-0.009757,0.0928783
			C13.8787737,10.4998827,13.8078566,10.6330729,13.7329197,10.7573767z M14.6384201,12.1077538
			c-0.0469608-0.0302992-0.0826435-0.0551262-0.1078005-0.0749054c0.0137138,0.0057039,0.0274563,0.0114403,0.0411186,0.0170441
			c0.0216551,0.008975,0.0431242,0.0179672,0.0644789,0.0267715c0.0194759,0.0249434,0.0502844,0.0452557,0.0911608,0.0613203
			c-0.0055971-0.0014019-0.0107775-0.0021124-0.0166817-0.0040112
			C14.6842022,12.1255302,14.6600761,12.1167288,14.6384201,12.1077538z M16.8712387,8.4900675l0.0055161,0.0778599
			c0.0022106,0.0311832,0.0011959,0.0546637-0.0028324,0.0706196c-0.0043144,0.015974-0.0053997,0.0343971-0.0039291,0.0551186
			c-0.008976,0.0216589-0.0121002,0.0504465-0.0095253,0.0867615c0.0025864,0.0365095,0.0045986,0.0649347,0.0060692,0.0856609
			c0.0051517,0.0727243,0.0097561,0.1377525,0.0137901,0.1947002c0.0030231,0.0426979,0.0000839,0.0843716-0.0087013,0.1249437
			c0.0023746-0.0206385,0.0043354-0.0388021,0.005867-0.054328c0.0029259-0.0315447,0.0026569-0.0730896-0.0010319-0.125186
			c-0.0319443-0.1542416-0.0426006-0.3046427-0.0319939-0.4516716c-0.0022087-0.0311832,0.0011024-0.057312,0.0100765-0.078968
			l-0.0055161-0.0778599c0.0087051-0.0214462,0.0126572-0.0425558,0.0111752-0.0634718
			c-0.0014629-0.0206289,0.0017319-0.0470352,0.0100765-0.0789652c-0.0022087-0.0311832-0.0098305-0.0618858-0.0222111-0.0923491
			C16.8355827,8.132925,16.8386955,8.107151,16.8574905,8.084959c0.0005188,0.0048389,0.001421,0.0098352,0.0017605,0.0145988
			c0.013113,0.0408249,0.0228539,0.1028137,0.0287323,0.1858091c-0.008976,0.021656-0.012743,0.0399818-0.0116386,0.0555716
			c0.0011063,0.0155907-0.0030193,0.0342293-0.0117226,0.0556746L16.8712387,8.4900675z M16.79813,7.9003744
			c-0.0007267-0.0102673-0.0067883-0.0203476-0.0177994-0.0300789l-0.0011044-0.0155902
			c-0.011179-0.0094309-0.011919-0.0198889-0.002203-0.0310864l0.0010986,0.0154963
			c0.0102673-0.0007296,0.0159779,0.004312,0.0166969,0.0144858c0.0117474,0.0201893,0.0189037,0.0456691,0.0211067,0.0767555
			c0.0219994,0.0534949,0.0354309,0.1032977,0.0409889,0.1498456L16.79813,7.9003744z M16.8471603,7.7090588
			c-0.0111847-0.0095282-0.0169621-0.0196276-0.0177021-0.0300856c0.0863876,0.0499067,0.1759396,0.2337389,0.1785107,0.5319157
			c-0.0017567-0.0248375-0.0035172-0.0496941-0.0052814-0.0745764c-0.0126667-0.0304432-0.0200024-0.0611649-0.0222111-0.0923491
			c-0.0022087-0.0311832-0.004034-0.0569468-0.0055161-0.0778632c-0.0216427-0.0087848-0.0340157-0.0391512-0.0377083-0.0912509
			c-0.0120182-0.0199761-0.0183506-0.0378723-0.019455-0.0534625c-0.0010986-0.0154963-0.0077972-0.0331759-0.0194511-0.0533719
			C16.8864231,7.7480326,16.8693695,7.7285051,16.8471603,7.7090588z M16.9536724,6.339601
			c-0.0048885-0.0042024-0.0097122-0.0077066-0.0145073-0.0109296c0.023983,0.0075703,0.0498314,0.014986,0.0779724,0.0220075
			c0.0381889,0.0246787,0.0701122,0.0439153,0.0977211,0.0593829C17.063036,6.3864617,17.0098572,6.3629198,16.9536724,6.339601z
			 M16.7167759,6.3093734l0.0310898-0.0022025l0.0311794-0.0022092l0.0778637-0.0055165
			c0.0109005,0.0045667,0.022522,0.009079,0.0347919,0.0135198c-0.0008316,0.0000257-0.0016804-0.0001941-0.0025063-0.0001359
			c-0.0209141,0.0014825-0.0420036-0.002183-0.0633755-0.0111814l-0.0779533,0.0055232
			c-0.0310898,0.0022025-0.0618954,0.0097342-0.09235,0.0222111c-0.08745,0.0210323-0.1768913,0.0497675-0.2680187,0.0850787
			c0.0693417-0.0404401,0.1685219-0.0747986,0.2980976-0.1028781L16.7167759,6.3093734z M16.1609726,6.5158596
			c-0.0280056,0.0139751-0.0557938,0.0271106-0.0841198,0.0423517C16.1023941,6.5430994,16.1309719,6.5291853,16.1609726,6.5158596z
			 M15.6039457,10.2774744c0.0010977,0.0260029-0.001812,0.0486078-0.008769,0.0674858
			C15.5958099,10.3264828,15.5987329,10.3039684,15.6039457,10.2774744z M15.5815468,13.4889479
			c0.0084429-0.0264902,0.013217-0.0346651,0.0139437-0.0243979c-0.0097151,0.0112009-0.0137463,0.0271568-0.0122862,0.0477848
			c0.0007429,0.010458-0.0038404,0.0212908-0.0132875,0.0322819C15.56919,13.5343494,15.572937,13.5157394,15.5815468,13.4889479z
			 M15.2897882,14.8950319c0.0229349,0.0297136,0.0559502,0.0533657,0.0990705,0.0713291
			C15.3464775,14.9588518,15.3134499,14.9350128,15.2897882,14.8950319z M15.4377451,14.9942379l0.0155926-0.0011053
			c0.0101709-0.00072,0.0157518,0.0011787,0.0161428,0.0066929c0.0001392,0.0019693,0.0016632,0.0032196,0.0033817,0.0043631
			C15.4620943,15.0023832,15.4506025,14.999402,15.4377451,14.9942379z M15.6101665,14.9976931l-0.0155935,0.0011053
			l-0.0132999,0.0320902l-0.0155907,0.0011053l-0.0155935,0.0011044c-0.0223951-0.019434-0.041173-0.0282316-0.0567627-0.0271273
			l0.023387-0.0016565l0.0155897-0.0011044l0.0311832-0.0022097l0.0310869-0.002202l0.0311832-0.0022097L15.6101665,14.9976931z
			 M15.9797659,14.4354572c0.0007496-0.0092669,0.0025768-0.0185976,0.0053616-0.0279703
			C15.98347,14.4181356,15.9816294,14.4274435,15.9797659,14.4354572z M16.1186886,13.889266
			c-0.0258636,0.1242371-0.073988,0.3028469-0.1195793,0.4633217c0.0014172-0.0123672,0.001915-0.0255384,0.0008879-0.0400524
			c-0.0033817-0.0477333-0.0087881-0.0878887-0.0156803-0.1218014c-0.0000744,0.0044146,0.000927,0.0087204,0.0001545,0.0132122
			c-0.0038557,0.0211039-0.0048571,0.0420036-0.0033779,0.0629196c0.0116396,0.0200024,0.0156898,0.0380602,0.0116625,0.0540152
			c-0.004221,0.0159712-0.0054255,0.0340195-0.0039301,0.0551224c-0.0005169,0.0071154-0.001318,0.0135975-0.0021229,0.0200186
			c-0.0523796,0.1825371-0.0982466,0.331439-0.0982466,0.331439c0.0007305,0.0102673-0.0038528,0.0211039-0.0133801,0.0322886
			c0.0095272-0.0111847,0.0144854-0.0166979,0.0144854-0.0166979c0.0007133,0.0100765-0.0042181,0.0159674-0.0144854,0.0166979
			l0.0133801-0.0322886l-0.0144854,0.016695c0.0014696,0.0207253-0.0082483,0.0319233-0.0288773,0.0333862
			c-0.0297298,0.0227442-0.0539341,0.0506363-0.0723534,0.0832796l-0.0014668-0.0206995
			c-0.0035458,0.0032101-0.0064363,0.0055904-0.0074348,0.005662c-0.0018597,0.0001326,0.0014114-0.0045643,0.0070543-0.0110559
			l-0.0001554-0.0021763c-0.0149698,0.0127344-0.0292358,0.0250206-0.0375748,0.0325298
			c-0.0007467-0.0008554-0.0028744-0.0012531-0.0071964-0.000946c0,0-0.09097,0.0512466-0.1546192,0.0266228
			c-0.2235556-0.0902557-0.0608292-0.6375704-0.0608292-0.6375704s0.1292648-0.4850225,0.3776093-0.8563728
			c0.0229349,0.0297146,0.0269814,0.0868521,0.0121412,0.1714077c0.0110064,0.0097313,0.0145721,0.0222826,0.0105419,0.0382376
			c-0.0042181,0.0159683-0.0013666,0.0184422,0.0083618,0.0074348c0.0095406-0.0109978,0.0219069-0.0225725,0.0367708-0.0339451
			c0.014863-0.0113716,0.0210838-0.0328341,0.0188751-0.0640144c0.0122051-0.0293684,0.0197563-0.0506134,0.0232668-0.064805
			c-0.0055103,0.0351524-0.0076189,0.0644951-0.0060205,0.0870876c0.0018444,0.0260477-0.0069695,0.0499868-0.0261192,0.0723629
			c0.0011597,0.0163431-0.0001097,0.0285769-0.0025606,0.0385504c0.0016499-0.0024643,0.0025835-0.0048962,0.0047703-0.00737
			c0.0094471-0.0109873,0.0140171-0.0220108,0.0132875-0.0322781c0.0007296,0.0102673-0.0034914,0.0262356-0.0121956,0.0476809
			c-0.0089626,0.0218468-0.0126419,0.0427465-0.0111752,0.0634689c0.0101738-0.000721,0.0150404-0.0088987,0.013936-0.0244923
			c-0.0011044-0.0155897,0.0041218-0.0132837,0.0160494,0.0066986c-0.0097322,0.0110111-0.0140305,0.0218239-0.0132875,0.0322819
			C15.9650383,13.746129,15.9610071,13.762084,15.9624901,13.783l0.0088205,0.1245403
			c-0.0067797,0.0526485-0.0064049,0.1307764,0.0009623,0.2347851c-0.0051584-0.0728245-0.004632-0.1382151,0.0017986-0.1958084
			c0.0061207-0.0579519,0.007309-0.1180382,0.0029068-0.180212c-0.0007429-0.010458,0.0010824-0.0184221,0.0061369-0.0239391
			c0.0046635-0.005681,0.006773-0.0136652,0.0060463-0.0239325c-0.0007429-0.010458,0.0010014-0.0208998,0.0055876-0.0317354
			c0.0044184-0.0104418,0.0063267-0.0212784,0.0055847-0.0317364c0.0088005-0.021452,0.0179634-0.0404463,0.027317-0.056776
			c0.0091629-0.0163202,0.0135841-0.0294361,0.0128441-0.0398941c0.0050354-0.0732574,0.0173111-0.1211357,0.0367451-0.1435347
			c0.013382-0.1051874,0.0190506-0.1735229,0.01684-0.2047033c0.0102673-0.0007267,0.0250378-0.0120916,0.0445652-0.0344973
			c-0.034277,0.1068611-0.0548058,0.1866617-0.0614052,0.2392006c0.0044117,0.062274-0.0023537,0.1151094-0.02005,0.15802
			c-0.008976,0.0216589-0.0131931,0.0349493-0.0128422,0.0398941c0.0003757,0.0053234-0.0091648,0.0189943-0.0284214,0.0411863
			c0.0029488,0.0416412-0.0005417,0.0678768-0.0100708,0.0790615c0.0007267,0.0102682-0.001194,0.0209131-0.0055866,0.0317364
			c-0.0046091,0.0104542-0.0059786,0.0262194-0.0044966,0.0471354l0.0055227,0.0779572
			c-0.0089912,0.0214653-0.012373,0.0452099-0.0105257,0.0712585c0.0018187,0.0256672-0.0019436,0.0494375-0.0106354,0.0710745
			l0.0198631,0.2804546c-0.0036888-0.0521002,0.0035467-0.0942707,0.0222654-0.1267433
			c-0.0085201-0.020483-0.0139484-0.0444708-0.0180149-0.0699959c0.0004253-0.0119181,0.001152-0.0245142,0.0025864-0.038599
			c0.0028305-0.031539,0.0036469-0.0577774,0.0021782-0.0785027l0.0022087,0.0311832l0.0022087,0.0311832
			c-0.0022087-0.0311832,0.0010796-0.0575962,0.0100842-0.0788708c0.0087719-0.0218334,0.0177727-0.043108,0.0267639-0.0645733
			c0.0087852-0.0216427,0.012455-0.0454073,0.0106201-0.0712643c-0.0018444-0.0260515,0.0016346-0.0498009,0.0106354-0.0710783
			c-0.0007401-0.0104551,0.0008945-0.021081,0.0055885-0.0317326c0.0042973-0.0108166,0.0063133-0.0214682,0.0055866-0.0317354
			c0.0072517-0.0419807,0.0206318-0.0742693,0.0400658-0.0966644c-0.0007267-0.0102673,0.0069542-0.0475006,0.0234509-0.1113462
			c-0.0075054,0.0423775-0.0104446,0.0737352-0.0089626,0.0946522c0.019146-0.0223799,0.0321789-0.0596094,0.0389481-0.1124487
			c0.0065956-0.0525389,0.0196152-0.0899591,0.0390472-0.1123571c0.0148487-0.0844622,0.0262985-0.1426945,0.0345459-0.1746178
			l0.0401535-0.0967674C16.2341595,13.3464117,16.1770592,13.6086216,16.1186886,13.889266z M16.3135796,10.7837839
			c0.0185165-0.03265,0.0321884-0.0595121,0.0412502-0.0812712c0.0087109-0.021349,0.0231991-0.0380468,0.0433731-0.049984
			C16.3794956,10.6851912,16.3512573,10.7289457,16.3135796,10.7837839z M16.4739285,10.5062332
			c-0.0148506,0.0115623-0.026865,0.0280828-0.0355701,0.0495281c0.0087051-0.0214453,0.0205326-0.0406275,0.035017-0.0573215
			c0.0112686-0.0129061,0.0236816-0.0308256,0.0374603-0.0534496c-0.0002136,0.0038528-0.0014935,0.0081549-0.0012341,0.0118046
			C16.5006256,10.4784508,16.4887981,10.4949579,16.4739285,10.5062332z M16.6934853,9.9584913l-0.0144863,0.016695
			l0.0277767-0.0489759C16.7075157,9.9366684,16.7029324,9.947504,16.6934853,9.9584913z M16.664505,9.9917879
			c0.004837-0.0118599,0.0117397-0.0239067,0.0199013-0.0360737C16.6778088,9.9677677,16.6718845,9.9804125,16.664505,9.9917879z
			 M16.7746525,9.7592468c-0.0032654,0.0001163-0.008358,0.0019989-0.0165424,0.0068245l0.0011044,0.0155897
			c0.0007362,0.0104265-0.0015697,0.015626-0.0066662,0.0160236l0.0066662-0.0160236
			c-0.0097179,0.011198-0.0166035,0.0245857-0.0206356,0.0405407c-0.0042171,0.0159683-0.00173,0.0133066,0.0072441-0.0083494
			c0.0094547-0.01089,0.0190697-0.0248528,0.028429-0.0410919c0.0013695-0.0024643,0.0017662-0.0039692,0.0024815-0.0057878
			c0.0023346,0.0046349-0.0074062,0.0198755-0.0309105,0.0468798c0.0014839,0.020916-0.0002632,0.0340357-0.0050335,0.0395327
			c-0.0049458,0.0057011-0.0068665,0.0136719-0.0061378,0.0239391l-0.0022087-0.0311832
			c-0.0114746,0.0356855-0.0262089,0.0682907-0.0424881,0.0995121l-0.0120602,0.0139437
			c-0.0097141,0.0111971-0.0192585,0.024869-0.0284271,0.0410919c-0.0093536,0.0163298-0.0188828,0.0301924-0.0284233,0.0411863
			c-0.2185783,0.3037901-0.3692474,0.4714155-0.4587288,0.5960236c-0.1108742,0.1603775-0.2831793,0.2829924-0.3962154,0.372509
			c-0.0337734-0.731225,0.4193668-2.4948635,0.9184265-2.9454823l0.0011044,0.0155935
			c0.013216,0.0409117,0.0264282,0.0790548,0.0394573,0.1146307c0.0127583,0.0357866,0.0158787,0.0798016,0.0093727,0.1323338
			c0.0101738-0.00072,0.016531,0.0121117,0.0183563,0.0378761c0.0018425,0.0260477,0.0122051,0.0279894,0.0316372,0.0055933
			c-0.0007267-0.0102673,0.0069542-0.0474997,0.0234585-0.1112528l-0.0066185-0.0934534
			c0.015419,0.0720015,0.0202007,0.1395006,0.0143452,0.2024975c-0.0030022,0.0072346-0.0044327,0.0157385-0.0061703,0.0239906
			c0.0040798-0.0159292,0.0109463-0.0294971,0.0206547-0.0406857c-0.0179634,0.0431213-0.0256672,0.0800695-0.0234585,0.1112528
			c0.0102692-0.0007296,0.0175133-0.0090752,0.0217304-0.0250435c0.0040302-0.015955,0.0068855-0.0133877,0.0083485,0.0072412
			c0.0007401,0.010458-0.0013695,0.0184422-0.0061398,0.0239391c-0.0049477,0.0057039-0.0065041,0.0188074-0.0050411,0.0394354
			l0.003315,0.0467739c0.0029488,0.0416412,0.0024891,0.0729189-0.0011768,0.0940056
			c-0.0038433,0.0212946,0.000288,0.0418291,0.0122051,0.061718c-0.0067654,0.0528393-0.0057526,0.1049356,0.0032406,0.1563702
			c0.0088272,0.051734,0.0147915,0.0982265,0.0177212,0.1395807c-0.0060406,0.0631065-0.0073147,0.1179447-0.0040016,0.1647186
			c0.0033073,0.0466766,0.0014858,0.0964928-0.0051136,0.1490316c0.0007992,0.0112619,0.0010414,0.0221987,0.0010834,0.0330114
			c-0.0179653,0.0808992-0.0375137,0.164896-0.0590858,0.2528629C16.7951965,9.6273394,16.7886467,9.6784439,16.7746525,9.7592468z
			 M16.9505367,8.8366318c-0.0221405,0.1515379-0.0546837,0.3234854-0.0971165,0.514801
			c-0.0001202-0.0022583,0.0001488-0.004735-0.0000095-0.0069733C16.8508396,9.3081436,16.85396,9.2793541,16.862936,9.2576981
			c0.0026035-0.0207481,0.0048561-0.039403,0.006918-0.0569057c0.0040722-0.0127411,0.0075512-0.0254726,0.0098476-0.0382051
			c0.0036659-0.0210867,0.0092525-0.0528231,0.0167694-0.0951071L16.88764,8.9428434l0.0055161,0.0778599
			c-0.0014591-0.0206289,0.0018291-0.0470419,0.0100765-0.0789652l-0.0011044-0.0155897l0,0l0,0l-0.0077248-0.1090441
			c0.0075741-0.000536,0.0130119,0.0064888,0.0160618,0.0207129c0.0031776-0.0336027,0.0062885-0.0671988,0.0095119-0.1007786
			c0.0058575-0.0629969,0.011898-0.1261034,0.0179443-0.1891136c-0.0036697-0.0518112-0.0011082-0.0884924,0.0078678-0.1101475
			c-0.0014629-0.0206318-0.0005531-0.041522,0.0033836-0.0628233c0.0036659-0.0210896,0.0052242-0.0368671,0.0044842-0.0473251
			c0.0087109-0.0213528,0.0108166-0.0685101,0.0056648-0.1412382c0.0044079,0.062273,0.01717,0.0980587,0.0388126,0.1068439
			c0.0042439-0.0048933,0.0071735-0.0121508,0.0091305-0.0210876c-0.000288,0.0094414-0.0003338,0.0185881-0.0007915,0.0282354
			C17.0008144,8.4417143,16.9822464,8.6206503,16.9505367,8.8366318z M17.6857719,7.172215
			c0.0128517,0.0357795,0.0264263,0.0790548,0.0405579,0.1301274c0.0244141,0.0506301,0.0385399,0.1017027,0.0422192,0.1536083
			c0.0036812,0.0520024,0.0128479,0.1085849,0.0277233,0.1702094c-0.0261478-0.0710487-0.047348-0.1504755-0.0638771-0.2381606
			c-0.0166912-0.0872946-0.0383568-0.1719403-0.0648804-0.2536669c-0.0110779-0.0397649-0.0217686-0.075541-0.0321999-0.1091666
			c0.0035324,0.0054522,0.0060024,0.0116982,0.0099888,0.0168176C17.6591663,7.0933628,17.6727409,7.1366386,17.6857719,7.172215z
			 M17.5865479,6.8969216c-0.0055809-0.0124316-0.0105038-0.0242591-0.0168247-0.0373621
			C17.5762119,6.8713417,17.5818844,6.883728,17.5865479,6.8969216z M17.4819069,6.7247839
			c0.0229301,0.0297174,0.0461464,0.0647602,0.0700893,0.1046286c0.0069885,0.0090952,0.0119915,0.019763,0.0176105,0.0299468
			c-0.023819-0.0398202-0.0499344-0.0770979-0.0782509-0.1117406c-0.0286121-0.0343747-0.049263-0.0669274-0.0616455-0.0973878
			C17.4413662,6.6704235,17.4587879,6.6951799,17.4819069,6.7247839z"/>
		<path class="st0" d="M16.9104652,8.8378172c-0.0027847,0.0294495-0.0056458,0.0589075-0.008337,0.0883312l0,0
			c0.0087109-0.0213518,0.0124741-0.0451231,0.0106297-0.0711718C16.9122925,8.8483915,16.9115105,8.842701,16.9104652,8.8378172z"
			/>
		<path class="st0" d="M16.8055611,8.4477091c-0.0008812-0.0124445-0.0002117-0.0234938,0.0006733-0.0343657
			C16.8051262,8.4240437,16.8046837,8.4353094,16.8055611,8.4477091z"/>
		<path class="st0" d="M16.8094501,8.3928089c-0.0013828,0.0065727-0.0026264,0.0132933-0.0032158,0.0205345
			C16.8069725,8.4062157,16.8078232,8.3991842,16.8094501,8.3928089z"/>
		<path class="st0" d="M16.8094692,8.3927345L16.8094559,8.392786L16.8094692,8.3927345z"/>
		<path class="st0" d="M19.0149422,8.6982393c-0.0031776,0.0036621-0.0062561,0.0082712-0.0094051,0.0121956
			C19.0171299,8.7022476,19.0209789,8.697813,19.0149422,8.6982393z"/>
		<path class="st0" d="M18.6176834,9.0346498c-0.0096741,0.0083323-0.0192204,0.0166559-0.0280018,0.0249176
			c0.0086517-0.006712,0.0173149-0.013423,0.026741-0.0199957C18.6162758,9.0374527,18.617363,9.0363779,18.6176834,9.0346498z"/>
		<path class="st0" d="M17.6644764,10.6724243c-0.0037632,0.0061464-0.0075397,0.0120602-0.0113754,0.0164785l0.0144882-0.0166979
			l0.0133801-0.0322847c-0.0039692,0.0095758-0.0080357,0.0176992-0.0121326,0.0251923
			c0.0012264-0.0081491,0.0045986-0.0165081,0.0121326-0.0251923l-0.0289726,0.0333891L17.6644764,10.6724243z"/>
		<path class="st0" d="M17.7406921,9.49259c0.0000057,0.000103-0.0000381,0.000268-0.0000324,0.000371
			c0.0040531-0.0127573,0.0069141-0.0248013,0.0104122-0.0372257c-0.0010853,0.0024767-0.0017662,0.0044823-0.0026836,0.0067625
			C17.7457943,9.4725399,17.7432652,9.4825554,17.7406921,9.49259z"/>
		<path class="st0" d="M17.7528419,9.4450893c0.0032082-0.0126543,0.0051193-0.0237579,0.0068569-0.0346651
			c-0.0051517,0.0124378-0.0107708,0.0260191-0.0162544,0.0392809c-0.0013313,0.0088434-0.0026588,0.0177116-0.0038891,0.0276661
			c-0.0001717,0.0013084-0.0002651,0.0023317-0.0004292,0.0036211c0.0001373,0.0068083,0.0000381,0.0130091-0.0002651,0.0187511
			c0.0006104-0.0023832,0.0012207-0.0047703,0.0018311-0.0071535c-0.0003681-0.0065632,0.0023708-0.0168276,0.0076962-0.0300922
			C17.7498875,9.4566879,17.7513409,9.4509001,17.7528419,9.4450893z"/>
		<path class="st0" d="M18.6176834,9.0346498c0.00457-0.0039377,0.0084591-0.0078192,0.0132256-0.0117731
			C18.622612,9.0234652,18.6189079,9.0280151,18.6176834,9.0346498z"/>
		<path class="st0" d="M17.7472801,9.5864153c-0.0006237-0.0087757-0.0062943-0.0219307-0.0149689-0.0379601
			c-0.0003014,0.0047159-0.0004692,0.0089178-0.0006237,0.0130644C17.7424355,9.5873194,17.7479687,9.596159,17.7472801,9.5864153z"
			/>
		<path class="st0" d="M17.7510719,9.4557352c0.0025425-0.0058012,0.0055332-0.0121212,0.0090141-0.0189943
			c0.0137653-0.0268688,0.0199051-0.050808,0.0184231-0.0717211c0,0-0.0049248,0.0118828-0.0118694,0.0286484
			C17.7623119,9.4138412,17.757019,9.4345932,17.7510719,9.4557352z"/>
		<path class="st0" d="M17.8287907,8.9701023c-0.0010853-0.0153093-0.0016918-0.0325718-0.0018063-0.0517054
			c-0.000103,0.0068665-0.0009289,0.0131063-0.0004025,0.0205221L17.8287907,8.9701023z"/>
		<path class="st0" d="M5.374392,15.5373049c-0.111414,0.1073513-0.2382507,0.215559-0.3806195,0.3240499
			c-0.2232647,0.1943073-0.4791112,0.3428974-0.7674594,0.4453773c-0.1226573,0.0766144-0.2535892,0.1351738-0.3929799,0.1760616
			c-0.1393971,0.0407028-0.2711236,0.073349-0.39537,0.0981369c-0.041409,0.01157-0.082876,0.0181808-0.1244111,0.0194569
			c-0.0416286,0.001276-0.0778601,0.0075378-0.1087852,0.0189743c-0.0416319,0.001276-0.0675735,0.0072231-0.0775406,0.0180168
			l-0.0623991,0.001915l-0.1405115,0.0043106c-0.0416286,0.001276-0.0834348-0.0001125-0.1250312-0.0039845
			c-0.0418901-0.0040531-0.0889997-0.0104256-0.1412315-0.0191231c-0.0318909-0.0199986-0.1005785-0.0491676-0.2057853-0.0875149
			c-0.127121-0.0689449-0.2289751-0.159647-0.3051689-0.2717342c-0.0430045-0.0404453-0.0727668-0.0812969-0.0896649-0.1223507
			c-0.0080001-0.0194359-0.0152414-0.0375519-0.021982-0.054718c0.0453041,0.0994987,0.1247535,0.1834736,0.2389259,0.2511635
			c0.0655904,0.1021099,0.1562891,0.1773281,0.27249,0.2260132c0.0525548,0.0191746,0.1077161,0.0331211,0.1653838,0.0418415
			c0.0573802,0.0085373,0.1174638,0.0120354,0.1799567,0.0101166c0.0209873,0.0096531,0.0523968,0.0140305,0.0941222,0.0127506
			c0.0101933-0.0003128,0.0155385-0.0031452,0.0153835-0.0082912c-0.0001647-0.0053349,0.0048091-0.007967,0.0152867-0.0082874
			l0.0624928-0.0019188c0.0206707-0.0006332,0.0491669-0.004179,0.0855923-0.0104446
			c0.0361316-0.0064468,0.0646343-0.0098019,0.0855892-0.0104446c0.1032882-0.024147,0.2146671-0.0456791,0.3339331-0.0649776
			c0.1189785-0.0192852,0.2351761-0.0516472,0.3485057-0.0965042c0.1023324-0.0553951,0.2100646-0.1056118,0.3234847-0.1506672
			c0.1130424-0.0450382,0.2208686-0.0952625,0.3233948-0.1504688c0.1943841-0.1100864,0.3830128-0.2461233,0.5655112-0.4079084
			c0.1118503-0.0869617,0.2029462-0.1729031,0.2732649-0.258399c0.0701313-0.0854883,0.1407084-0.1658421,0.2113566-0.2406664
			c-0.020328,0.0212193-0.0480108,0.0481949-0.0834413,0.0805569c-0.0356212,0.0323687-0.0735645,0.0699568-0.1137238,0.1129522
			c-0.029882,0.0423002-0.0651832,0.085146-0.1054358,0.1281471c-0.0403562,0.0428114-0.0859447,0.0859737-0.1365905,0.1291008
			c-0.1018867,0.0759745-0.1884837,0.1438513-0.2593188,0.2032375c-0.0712166,0.0593948-0.1373982,0.1058588-0.1988349,0.1390171
			c0.0596929-0.0426188,0.1117535-0.0823708,0.1567864-0.1194487c-0.0454721,0.0325727-0.0975909,0.0670958-0.1572676,0.1038284
			c-0.071701,0.0435801-0.1434541,0.0823984-0.2151809,0.1158724c-0.0317454,0.0147629-0.06112,0.0282383-0.0888252,0.0408306
			c-0.117312,0.0588055-0.238884,0.1128292-0.3658338,0.1605816c-0.211153,0.0793266-0.4254165,0.1381531-0.6429968,0.1759129
			c-0.041409,0.0115662-0.0956726,0.0237198-0.1628938,0.0362701c-0.0675089,0.0123711-0.142698,0.0200176-0.2258615,0.0225697
			l-0.1872885,0.0057468c-0.0315678-0.0095215-0.055145-0.0166187-0.0709257-0.0212822
			c-0.0157871-0.004858-0.0341518-0.006773-0.0549192-0.0061359c-0.021281-0.0098343-0.0844779-0.0340233-0.1896784-0.0721798
			c-0.0610459-0.0429077-0.1108522-0.0833988-0.150275-0.1215515c0.0138009,0.0113239,0.0288162,0.021801,0.0459468,0.0309277
			c0.0370262,0.0196495,0.0661459,0.0395451,0.0878434,0.0598583c0.0317876,0.0198116,0.0580974,0.031971,0.0792167,0.0366611
			c0.020829,0.0045109,0.0418386,0.0116844,0.0631163,0.0215225c-0.0216007-0.0203152-0.0508173-0.0402069-0.0877497-0.0598602
			c-0.0358796-0.0191174-0.0690429-0.0431919-0.1002393-0.0720119c0.1687331,0.1095963,0.371815,0.1493397,0.6094298,0.1189404
			c0.5705433-0.0697536,1.0603969-0.2304802,1.4693515-0.4825497c0.4086637-0.2522516,0.7414665-0.5281134,0.9978395-0.8273754
			c0.2563639-0.2996387,0.440177-0.5863791,0.5516233-0.8605967c0.1112595-0.274024,0.1599422-0.4681273,0.1461349-0.5825062
			c-0.0247855-0.1241522-0.0610461-0.20895-0.1092606-0.2543869c-0.0483012-0.0453367-0.1037626-0.0722408-0.1665788-0.0807991
			l-0.1092668,0.0033493l-0.0780153,0.0023928c0.067564-0.0281696,0.1707006-0.0365095,0.1707006-0.0365095L5.9160838,13.333499
			c0,0-0.1169534,0.0033522-0.1556559,0.0204153l-0.0156221,0.0004778c0.0099735-0.0105095,0.030767-0.0165815,0.030767-0.0165815
			l-0.0156226,0.0004787l-0.0467734,0.0014372c0.0006781-0.00002,0.0005941,0.0002155,0.0000191,0.0006227l0.0004587,0.0149994
			c-0.0186939,0.0005751-0.0198827-0.0036631-0.0054808-0.0124836c-0.0242753,0.0109653-0.1239009,0.0477266-0.1106396,0.0473194
			c0.015626-0.0004778,0.0180063-0.0005522,0.007813-0.0002384c-0.2027526,0.0878267-0.5107732,0.1563148-0.5107732,0.1563148
			c0.1137724-0.0242786,0.2064571-0.0583982,0.2780547-0.1022615c-0.0104771,0.0003195-0.0464506,0.0119152-0.1083107,0.0345039
			c-0.0617533,0.0228701-0.087698,0.0288162-0.0775404,0.0180159c0.0306087-0.0217266,0.0537243-0.0329247,0.0692496-0.0333996
			c0.015626-0.0004807,0.0284252-0.0059261,0.0385833-0.0167265c0.0414376-0.0012732,0.0828466-0.0128422,0.1239295-0.035079
			l-0.2019515,0.0374718C5.1242232,13.493289,5.0259509,13.5224285,4.92243,13.535903
			c-0.0104771,0.0003223,0.0024033-0.002552,0.0388188-0.0090084c0.0361381-0.006259,0.0333896-0.0088425-0.0080519-0.0075731
			c-0.0518799,0.0120821-0.1037374,0.0188198-0.1556559,0.0204153c-0.2374082,0.0385571-0.408134-0.0316486-0.5505447-0.1237555
			c-0.1942549-0.1743536-0.3059468-0.3690119-0.2880831-1.240942c0.0067794-0.1147251,0.0835738-0.8408051,0.137763-1.1134558
			c0.1092405-0.6334791,0.5815277-2.2418175,0.7878428-2.8361998c0.3212886-0.9458756,1.1084371-3.1015,1.5225558-3.9901538
			c0.1235871-0.2372854,0.1007204-0.3175969,0.0247335-0.4737277c-0.0734487-0.1353922-0.205246-0.290092-0.3376122-0.4083407
			C6.0010529,3.2799425,5.8734088,3.228883,5.7315602,3.2470989c-0.3304415,0.071136-0.7006125,0.3945043-1.0137043,0.8200402
			C4.6327095,4.179122,4.5504665,4.298737,4.4711366,4.4261775l0.1281447,0.1054363
			C4.5888004,4.5319366,4.5781651,4.5271144,4.5676522,4.5169473C4.5460577,4.4969192,4.5274801,4.4818492,4.5115347,4.4718499
			c-0.0159388-0.009809-0.0403981-0.0456724-0.0403981-0.0456724c-0.0104804,0.00032-0.015461,0.0058136-0.0151443,0.0161004
			c0.0209937,0.0098443,0.0318069,0.0173345,0.0319653,0.0224762c0.0001612,0.0053353,0.0107517,0.0179801,0.0323462,0.0380077
			L4.5198255,4.4872332c0.0003228,0.0104809,0.00562,0.0153704,0.0161004,0.0150509L4.5203037,4.5027618
			c0.0102868-0.0003161,0.0157061,0.0022836,0.015861,0.0073318C4.5363331,4.515523,4.5415492,4.5177484,4.5520263,4.5174251
			L4.5364041,4.5179067L4.5203037,4.5027618L4.4559922,4.4422779C4.3927178,4.5095963,3.8805041,5.3765526,3.8311369,5.4613113
			C3.3095441,6.464325,2.6014218,7.8581676,2.0364628,10.1093807c-0.1021513,0.4093351-0.3881288,1.5951805-0.5006896,3.0304899
			c-0.139029,1.7739258,0.1465995,2.7259417,0.5215122,3.2490435c0.1191981,0.1525307,0.2840524,0.2672348,0.4948502,0.3441048
			c0.1092668,0.0412045,0.2661014,0.0177727,0.2346337,0.0084381c-0.0212779-0.0098343-0.0527649-0.0166874-0.0943611-0.0205593
			c-0.0418904-0.0040531-0.0735323-0.0160522-0.094836-0.0359936c-0.0318878-0.0199986-0.0691075-0.0396461-0.111182-0.0591393
			c-0.0423682-0.01968-0.0847299-0.0391655-0.1268075-0.0586624c-0.0318875-0.0200005-0.0907309-0.0700645-0.1764491-0.150774
			c-0.0098767-0.0183258-0.0203154-0.034771-0.0310414-0.0502739c0.0302339,0.0298176,0.0617306,0.0589886,0.0946355,0.0874176
			c0.0642405,0.0550518,0.1226637,0.0976906,0.1757324,0.1273403c0.0634489,0.0293293,0.1213071,0.0534878,0.1741526,0.0728436
			c0.0525551,0.0191746,0.1049485,0.0330143,0.1574776,0.0420837c0.0414412-0.0012722,0.0754249-0.0000248,0.1016896,0.004509
			c0.0259738,0.0043507,0.0493219,0.0009651,0.0699699-0.0097771c-0.0130095,0.0003986-0.0269785,0.0008278-0.0389576,0.0011959
			c-0.0468707,0.0014381-0.0964799-0.0025711-0.1488023-0.0110722c0.0102868-0.0003166,0.0364609,0.0011692,0.0782573,0.0054169
			c0.0416868,0.0036812,0.0783577,0.0054169,0.1095057,0.0044594l0.0781155-0.0023956l0.015532-0.0004749
			c0.0099607-0.0109882,0.0254281-0.0164204,0.046386-0.0170631c-0.0209579,0.0006428-0.0314159-0.0045662-0.0317261-0.0146637
			l0.0312481-0.0009575c0.3318887-0.0414581,0.6576052-0.1193409,0.977072-0.2330742
			c0.1745696-0.0783958,0.3465037-0.1618614,0.5156178-0.2501945c0.1691985-0.0887184,0.3298635-0.1975803,0.4820733-0.3271618
			c0.3459544-0.2606268,0.638669-0.5718708,0.8775048-0.9331474c0.016727-0.0324459,0.0342159-0.0649509,0.0515761-0.0974455
			c-0.0811157,0.125658-0.1733809,0.2541933-0.2770147,0.3856516C5.5914268,15.3170567,5.4856062,15.4295759,5.374392,15.5373049z
			 M6.1210713,3.7194409c0.0321074,0.030292,0.0643921,0.0631518,0.0967546,0.0985825
			c0.0053806,0.0059428,0.010035,0.0117016,0.0148377,0.017499C6.2164502,3.8213403,6.1960053,3.8080821,6.1702385,3.7960255
			C6.1480079,3.7552302,6.1236167,3.7247024,6.0971584,3.7045388c-0.0092697-0.0069215-0.0177898-0.013859-0.0264168-0.0207934
			C6.0847754,3.6938546,6.1013408,3.705611,6.1210713,3.7194409z M3.7708499,12.665103
			c0.0009561,0.0312452,0.007225,0.067667,0.018975,0.1087856c0.0102189,0.0365896,0.0158677,0.0732355,0.0180867,0.1099253
			C3.7855582,12.8048134,3.772891,12.7317209,3.7708499,12.665103z M4.1178637,13.544714
			c-0.0196886-0.0147667-0.0380983-0.0352631-0.0552034-0.0614729c0.0022707,0.0028877,0.004777,0.0055323,0.0070152,0.0084524
			C4.0826139,13.5088825,4.0988016,13.5265779,4.1178637,13.544714z M3.9807339,13.3928719
			c0.0155318,0.0146532,0.0304213,0.030014,0.0448003,0.0459213c-0.0730901-0.0560236-0.1157069-0.117218-0.1272242-0.183939
			c-0.0441802-0.0818882-0.0681419-0.1853733-0.0719724-0.3102627c-0.001447-0.004324-0.0024483-0.0083742-0.0038402-0.0126638
			c0.0137458,0.03827,0.0213487,0.0736361,0.0223339,0.1058273c0.0012822,0.0417252,0.0077062,0.083293,0.0194561,0.1244106
			c0.0222726,0.0515699,0.0392482,0.0951977,0.0508432,0.1312647C3.9265413,13.3296976,3.9485297,13.3626804,3.9807339,13.3928719z
			 M3.8017395,11.633112c0.017163-0.1150446,0.0370035-0.2328415,0.0594344-0.3533859
			c0.008533-0.0463247,0.0175991-0.0942421,0.0269201-0.1429796c-0.0068405,0.0419483-0.0139816,0.0834866-0.0195885,0.1271181
			c-0.0169628,0.1308641-0.0338223,0.2588663-0.0506656,0.3842945c-0.0184937,0.0840969-0.0264583,0.1570969-0.024543,0.2194929
			c0.0019186,0.0624924-0.0015018,0.1250505-0.0098765,0.1877632c-0.0069473,0.0230408-0.0120118,0.0450773-0.0161812,0.0666304
			c0.0021832-0.035037,0.0036399-0.0697956,0.0071733-0.1053524C3.7863691,11.8966579,3.7954092,11.7687073,3.8017395,11.633112z
			 M2.1299489,15.9570313c0.0869358,0.1675625,0.1939707,0.2941914,0.3207037,0.3807602
			c-0.0294328-0.0186977-0.0624638-0.0404892-0.1001649-0.0671444c-0.0426817-0.0299664-0.0854342-0.0652714-0.1282449-0.1055298
			c-0.096832-0.1011543-0.151974-0.1984358-0.165132-0.2916698c-0.0220497-0.0410862-0.0338836-0.0849657-0.0353143-0.1316462
			c-0.0003295-0.0107584-0.0013177-0.0206318-0.0026872-0.0299911C2.0534096,15.7987556,2.0903065,15.8805914,2.1299489,15.9570313z
			 M1.9964136,15.6521854c-0.0028615-0.0037889-0.0055228-0.0078421-0.0088851-0.0109787
			c-0.0223694-0.0515661-0.0449649-0.1105614-0.0679965-0.177557c-0.0204767-0.0604639-0.0321492-0.1186199-0.0357697-0.1752186
			C1.9170676,15.4180393,1.9545913,15.5393429,1.9964136,15.6521854z M1.8538997,15.1656837
			c-0.011934-0.0444098-0.0232253-0.0875816-0.03337-0.1286516c-0.0135167-0.0548639-0.0212132-0.1137266-0.0259643-0.1747055
			C1.8121839,14.9676952,1.8318952,15.0689487,1.8538997,15.1656837z M1.8304354,15.6147518
			c-0.0232319-0.0828142-0.0462278-0.154768-0.0691011-0.2166176c-0.0226794-0.0616665-0.0353951-0.1343136-0.0379499-0.2175741
			c-0.0356212-0.1447945-0.0551517-0.2715855-0.0585041-0.380949c-0.0033493-0.10917-0.0004942-0.1901178,0.0082036-0.2422562
			c-0.0061431,0.1353989,0.0003262,0.2654524,0.0196887,0.3899603c0.0194497,0.1243143,0.0418837,0.2588348,0.0671309,0.4041386
			c0.0350721,0.1238365,0.0754831,0.247508,0.1207548,0.3712215c0.0360767,0.0978098,0.0761194,0.1912603,0.1183778,0.2824669
			c-0.0358053-0.0542355-0.0671504-0.1117125-0.0915933-0.174015C1.8792922,15.7589521,1.8536252,15.6868887,1.8304354,15.6147518z"
			/>
		<path class="st0" d="M8.5687189,10.7006369c-0.00072,0.000432-0.0012589,0.0010328-0.0020018,0.0014467
			C8.5668497,10.7047806,8.5675278,10.704215,8.5687189,10.7006369z"/>
		<path class="st0" d="M11.0873184,9.8134136c-0.0030031,0.006815-0.0050154,0.0117693-0.006566,0.0158548
			C11.0829039,9.8241205,11.0853491,9.8178902,11.0873184,9.8134136z"/>
		<path class="st0" d="M8.4007902,10.8011694C8.4037781,10.7942705,8.406333,10.787837,8.408803,10.781497
			c0.0074129-0.024498,0.0141659-0.0490122,0.0204544-0.0735226c-0.0126572,0.0186968-0.0205126,0.0400429-0.0233316,0.0645275
			C8.4046659,10.7828798,8.402647,10.7918777,8.4007902,10.8011694z"/>
		<path class="st0" d="M11.0852871,9.931694c0.0085783-0.0144663,0.0203609-0.0385857,0.0355339-0.0729637
			C11.1090164,9.8853273,11.0971661,9.9091568,11.0852871,9.931694z"/>
		<path class="st0" d="M10.7977924,10.6091824c0.0100412-0.0260391,0.0189905-0.0488539,0.0270329-0.0689917
			c-0.0021801,0.0045376-0.0037889,0.0080652-0.0063629,0.0133104
			C10.7947464,10.6015053,10.7878313,10.6201601,10.7977924,10.6091824z"/>
		<path class="st0" d="M10.8251286,10.5297003c0.0052357-0.0118494,0.0100288-0.0224371,0.0145569-0.0322618
			c-0.0002451,0.0002518-0.0001936-0.0000134-0.0004654,0.0002804c-0.0085583,0.0094347-0.0155449,0.0208941-0.0219917,0.0330505
			c-0.0122118,0.0324469-0.0238123,0.0642338-0.0342865,0.0947847
			C10.7921171,10.6043053,10.8062153,10.5724173,10.8251286,10.5297003z"/>
		<path class="st0" d="M10.8677912,10.4416533c-0.006999,0.0116177-0.0164204,0.0304413-0.0281057,0.0557852
			c0.0017824-0.0018282,0.0029583-0.0025969,0.0033884-0.0020638
			C10.8546944,10.4676085,10.8629494,10.4496889,10.8677912,10.4416533z"/>
		<path class="st0" d="M10.8430738,10.4953747c-0.0053425,0.0127668-0.0114851,0.027873-0.0182486,0.044816
			C10.838048,10.512641,10.8444853,10.4971342,10.8430738,10.4953747z"/>
		<path class="st0" d="M10.9363394,10.3442955c0.0183258-0.0442028,0.033823-0.0842619,0.0460052-0.1192856
			C10.9676819,10.2644196,10.9517164,10.3045139,10.9363394,10.3442955z"/>
		<path class="st0" d="M12.2735157,6.1157322c0.0117826,0.0201182,0.0402269,0.0492764,0.085043,0.0873942
			c0.0008078,0.0104518,0.0277634,0.0240459,0.0814362,0.0407405c0.0646505,0.0263581,0.1332188,0.0366421,0.206008,0.0310187
			c0.019928-0.0117693,0.045269-0.021565,0.076026-0.029294c0.0307703-0.0075417,0.0559206-0.0173211,0.0760155-0.0293908
			c-0.0104513,0.0008073-0.0230732,0.0044603-0.0382595,0.010797c-0.0151739,0.0065241-0.0332279,0.0104032-0.0539436,0.0120053
			l-0.1244822,0.0096183c-0.0209999,0.0016212-0.0418091,0.0007424-0.0629358-0.0029778
			c-0.0213032-0.0035143-0.0476551-0.0093184-0.0796328-0.0173602c-0.021698-0.0086493-0.0436087-0.0225372-0.0658522-0.041945
			c-0.0225925-0.0189977-0.0448132-0.0381179-0.0671434-0.0574226c-0.0224991-0.0190072-0.0400953-0.0438375-0.0526714-0.0742202
			c-0.0095091-0.0224438-0.0224791-0.0407047-0.0371552-0.0570278c0.0005875,0.0015793,0.0011845,0.0033202,0.0017729,0.0048895
			C12.2308245,6.0382562,12.2493219,6.0760188,12.2735157,6.1157322z"/>
		<polygon class="st0" points="12.6970692,4.9227333 12.6997042,4.9220743 12.7005825,4.9209762 12.6988258,4.9218545 		"/>
		<polygon class="st0" points="12.72332,4.7303162 12.7215633,4.728559 12.7224417,4.7311945 12.7215633,4.7355609 		"/>
		<path class="st0" d="M12.7268085,4.7565675V4.7495656l-0.0017309-0.0035143
			c0.0011368,0.0023513,0.0017309,0.0070024,0.0017309,0.0140042C12.7268085,4.7588897,12.7273903,4.7583117,12.7268085,4.7565675z"
			/>
		<polygon class="st0" points="12.7215633,4.8720126 12.7205944,4.8729687 12.720582,4.8729944 		"/>
		<polygon class="st0" points="12.6620836,4.9367375 12.658596,4.9375901 12.6551075,4.9384685 12.6515932,4.9384685 
			12.6481056,4.9402256 12.6428604,4.9402256 12.6411028,4.9402256 12.6411028,4.9437137 12.6445913,4.9437137 
			12.6515932,4.9402256 12.6551075,4.9402256 12.6603527,4.9384685 12.6647196,4.9367375 12.6708431,4.9349804 
			12.6664762,4.9358592 		"/>
		<polygon class="st0" points="12.720582,4.8729944 12.7197809,4.8737955 12.7180758,4.8772578 		"/>
		<polygon class="st0" points="12.6970692,4.9227333 12.6935806,4.9297352 12.6959286,4.9267993 12.6962166,4.9253688 		"/>
		<polygon class="st0" points="12.6096067,4.7548108 12.6113377,4.7513614 12.6078749,4.7565675 		"/>
		<path class="st0" d="M12.2159681,5.9976678c-0.0062113-0.0166855-0.0124607-0.0338516-0.0187397-0.051722
			c0.0011435,0.0111203,0.0022058,0.0225568,0.00313,0.0345364C12.2061815,5.9855137,12.2107935,5.9919119,12.2159681,5.9976678z"/>
		<polygon class="st0" points="13.2130585,4.9823937 13.2122574,4.9831944 13.2105513,4.9866567 		"/>
		<polygon class="st0" points="13.2157965,4.839715 13.2140398,4.8379579 13.2149181,4.8405933 13.2140398,4.8449602 		"/>
		<polygon class="st0" points="13.1020832,4.8642097 13.1038141,4.8607602 13.1003513,4.8659668 		"/>
		<path class="st0" d="M12.0404129,5.6325574c0.0066605,0.0206094,0.0110102,0.041018,0.0126095,0.0617342
			c0.0117817,0.0201182,0.0160456,0.040627,0.0125055,0.0616431c-0.003705,0.0213165-0.0044794,0.0422168-0.0028877,0.0628357
			c0.0109816,0.0097632,0.0197668,0.0219879,0.0262909,0.0371618c0.0063362,0.0151896,0.0147305,0.0223789,0.0251827,0.0215716
			l-0.0096254-0.124579L12.09727,5.6595163c0.0134811,0.0408278,0.0215979,0.0766201,0.0240068,0.1077905
			c0.0024061,0.0311675,0.009551,0.0568056,0.0215979,0.0766201c0.0117788,0.0201149,0.0187941,0.0404077,0.0203962,0.0611172
			l0.0011978,0.0155029l-0.001195-0.0154901c0.0016146,0.0209064,0.0082455,0.0411377,0.0202961,0.0610461
			c-0.0109005-0.0180092-0.0169659-0.038825-0.0196238-0.0618343l0.0136127-0.0159903
			c0.0065699,0.0198565,0.0131321,0.0390573,0.0196695,0.0576673c-0.0016079-0.0156641-0.0034657-0.0303373-0.005497-0.0443254
			c0.0014305,0.0054941,0.0022573,0.0110426,0.0038109,0.0165267c0.0126705,0.0303731,0.0251341,0.055604,0.0371876,0.0755124
			c0.0117826,0.0201182,0.0289621,0.0395355,0.0514669,0.0586333c0.0126705,0.030376,0.0247402,0.0504751,0.0359764,0.059835
			c0.0110712,0.0096569,0.0277634,0.0240455,0.0503654,0.0431366c0.022233,0.0193143,0.0416832,0.0334897,0.0580521,0.0424523
			c0.0163908,0.0092468,0.0351591,0.0183129,0.0569534,0.0269527l0.0934086-0.0072155
			c-0.0416222,0.0032134-0.0731869,0.0004907-0.0946131-0.0083685c-0.0113335-0.0093532-0.0223894-0.016336-0.0329762-0.0209675
			c-0.0108395-0.0042281-0.0274239-0.0159488-0.0497513-0.035253l0.0239744,0.0097246
			C12.4204226,6.160387,12.4175901,6.1567793,12.4171953,6.15166c-0.033576-0.0287576-0.055687-0.0427265-0.065855-0.0419416
			l0.015584-0.001205l0.0322781,0.0131841c-0.0216913-0.0085526-0.0447187-0.0381274-0.069459-0.0885992
			c-0.0120506-0.0199084-0.0240974-0.0397196-0.0359764-0.0598316c-0.0120506-0.0199084-0.0240974-0.0397229-0.0358896-0.0599351
			c0.0093822-0.0109553,0.002635-0.0314646-0.0203924-0.0610394c-0.0015993-0.0207124-0.005456-0.035996-0.0114012-0.0461469
			C12.2199755,5.7963877,12.2163,5.7809949,12.2146854,5.7600884l-0.0072184-0.0934086
			c0.0016146,0.0209064,0.0054808,0.0387702,0.0119982,0.0538468c0.0063372,0.0151868,0.0100098,0.0280962,0.0108042,0.0383568
			c0.0085649-0.0215006,0.009634-0.042326,0.002984-0.0628414c-0.0070181-0.0202961-0.010994-0.0408278-0.0126095-0.0617342
			c0.0085754-0.0214067,0.0121832-0.0452008,0.0101738-0.0712357c-0.0019894-0.0257511-0.0034008-0.0439963-0.0042076-0.054451
			c-0.0015993-0.0207124-0.0012369-0.0469351,0.0017729-0.0785193c0.002635-0.0314641,0.0032978-0.0575156,0.0016823-0.0784187
			c-0.002409-0.0311708,0.0011311-0.052187,0.0107746-0.0634456c-0.0007906-0.0102644,0.0039272-0.0159812,0.0143795-0.0167885
			c-0.0128803,0.1054745-0.0147219,0.2152615-0.0059042,0.3293853c0.0088329,0.114315,0.0295753,0.2145157,0.0624084,0.3004956
			c0.0325823,0.0863833,0.0843458,0.1476717,0.1551981,0.1837807c0.0705862,0.0364156,0.1721859,0.0337286,0.3047094-0.0078645
			l0.0599356-0.0358896l0.015583-0.0012045c0.0093765-0.0110493,0.0194178-0.0171762,0.0298691-0.0179834
			c-0.0286703,0.0334735-0.037921,0.0498648-0.0274658,0.049057l0.1400661-0.0108228
			c-0.0209064,0.0016146-0.030654,0.0078192-0.0298691,0.0179863C12.960557,6.088841,12.9655924,6.08845,12.9752369,6.0771914
			c0.0094795-0.010962,0.0147982-0.0113721,0.0155869-0.001205l-0.0298691,0.0179868
			c0.0016146,0.0209031,0.0099125,0.0281024,0.0250854,0.021575c0.0151863-0.0063338,0.0322428-0.0206513,0.0515347-0.0431724
			c0.0109749,0.0096664,0.1338577-0.0475202,0.240634-0.1282353c0.0751181-0.0580974,0.2139339-0.2256322,0.307682-0.4779263
			c0.0413761-0.1387448,0.1275053-0.2949886,0.0930977-0.8216329l-0.0060139-0.0778246l-0.0012045-0.0155835l-0.0167885-0.014379
			c0.0094795-0.010962,0.0135946-0.0269556,0.0119801-0.0478621c-0.0120506-0.0199051-0.024518-0.045136-0.037178-0.0754151
			c-0.0128613-0.0303602-0.0203056-0.0611401-0.0227089-0.0922136c-0.0383825-0.0909991-0.1766272-0.2882509-0.388216-0.3615444
			c-0.2947397-0.1011567-0.5330849,0.0622151-0.6310596,0.1427238c-0.049674,0.0350947-0.3912582,0.3305259-0.5098782,0.9007654
			c0.0023994,0.0310736-0.0006075,0.0626612-0.0083685,0.0946131l-0.0131741,0.032372l0.0023994,0.031074l-0.015584,0.0012045
			l0.0012045,0.0155835l0.0024061,0.0311675l0.0036077,0.0466576c0.0016155,0.0209031,0.000349,0.0391641-0.0035782,0.0551448
			c-0.004118,0.0159941-0.0051775,0.0344296-0.0035849,0.0550518c0.0024061,0.0311675,0.0023603,0.0651994,0.0000257,0.1018023
			c-0.0024996,0.0369005-0.0022869,0.0706258,0.000123,0.1017933C12.0344639,5.5914326,12.0334044,5.6123552,12.0404129,5.6325574z
			 M13.039115,4.958674c0.002326-0.0046506,0.0035143-0.0081649,0.0035143-0.0105162V4.9446697l0.0017309-0.0034881V4.9376678
			V4.9324226l0.0035143-0.0034885c0-0.0011625,0.0002584-0.0023251,0.0008783-0.0035138
			c0.0005684-0.0011368,0.0008526-0.0028939,0.0008526-0.0052452c0.0011625-0.0034881,0.0020409-0.0066919,0.002636-0.0096116
			c0.0005684-0.0028939,0.0014467-0.0061235,0.002635-0.0096121l0.0174923-0.0349846
			c0.0058136-0.0140047,0.0128164-0.0256577,0.0209808-0.0349851c0.0034885-0.0046511,0.0075703-0.0093279,0.0122471-0.0140042
			c0.0046511-0.0046511,0.0093279-0.0093279,0.013979-0.0139785c0.0093279-0.0070024,0.0163298-0.0116534,0.0210066-0.0140047
			c0.0046511-0.0023251,0.0081387-0.0034881,0.0104904-0.0034881h0.0017567l0.0017309-0.0017567h0.0017576h0.0087585h0.0017309
			h0.0035143h0.0052452h0.0052452h0.0017567h0.0034885c0.0081387,0.0011625,0.0157356,0.0046763,0.0227375,0.0104899
			c0.0011368,0,0.0017567,0.0005946,0.0017567,0.0017571s0.0005693,0.0017314,0.0017319,0.0017314
			c0.0011625,0.0011883,0.0020409,0.0017567,0.002635,0.0017567c0.0005684,0,0.0014467,0.0005946,0.002636,0.0017571
			L13.219285,4.802999c0,0.0011625,0.0005684,0.0023251,0.0017567,0.0034881c0,0.0011625,0.0005684,0.0017571,0.0017576,0.0017571
			l0.0034876,0.0017309l0.0034885,0.0035138v0.0034885c0.0011625,0.0058393,0.0029192,0.0093532,0.005271,0.0104899
			c0.0022993,0.0058656,0.003746,0.0116792,0.0043669,0.0174928c0.0005684,0.0058651,0.0008783,0.0104904,0.0008783,0.0140042
			c0,0.0093536-0.0011883,0.0186553-0.0035143,0.0279827v0.0122476c-0.0023508,0.0023513-0.0034876,0.0046763-0.0034876,0.0070019
			c0,0.0023513-0.0005951,0.0034881-0.0017576,0.0034881V4.9044399c-0.0011625-0.0011373-0.0017567-0.0005689-0.0017567,0.0017567
			c0,0.0023513-0.0005941,0.0034881-0.0017309,0.0034881V4.9026828c0,0.0035138-0.0006208,0.0052452-0.0017576,0.0052452
			c0,0.0023513-0.0011625,0.004108-0.0034876,0.005271v0.0052452c0-0.0023255-0.0003099-0.0029197-0.0008783-0.0017571
			c-0.0005951,0.0011625-0.0008793,0.0023513-0.0008793,0.0034881c-0.0011883,0-0.0011883-0.0005684,0-0.0017309
			c-0.0011883-0.001163-0.0017567-0.0005946-0.0017567,0.0017309v0.0035143l-0.0034885-0.0087595v0.0087595
			c-0.0011883,0.0023513-0.0017567,0.0046763-0.0017567,0.0069761c0,0.0011888-0.0005941,0.0017571-0.0017567,0.0017571
			c-0.0023518,0.018681-0.0064077,0.0349846-0.0122213,0.0489893c-0.0058661,0.0128412-0.0140047,0.0244946-0.0244951,0.0349846
			c-0.0104904,0.0104904-0.0250893,0.0163298-0.0437441,0.0174928h0.0070019h0.0070028
			c0.0011368-0.001163,0.0023251-0.0017571,0.0034876-0.0017571s0.002326-0.0005684,0.0035143-0.0017571
			c0.0023251,0.0023513,0.006382,0.0017571,0.0122471-0.0017309l0.0034885-0.0017571h0.0017567
			c0.0011368-0.0011625,0.0028944-0.0017571,0.0052452-0.0017571c-0.0023508,0.0023513-0.0046768,0.0041084-0.0070019,0.0052452
			c0.0011368,0,0.0023251-0.0005684,0.0034876-0.0017309H13.17381l0.0034876-0.0035143l0.0017576-0.0017309
			c0.0011625,0,0.0017567-0.0011625,0.0017567-0.0035138h0.0017567l0.0034885-0.0034885l0.0034885-0.0017567
			c0.0080099-0.0090079,0.0129023-0.0169826,0.0157614-0.0242782V4.9884138c0-0.0011625,0.0005684-0.0017571,0.0017309-0.0017571
			c-0.0003328,0.0011535-0.0012598,0.0025067-0.0017309,0.003705v0.0015402c0,0.001163-0.0006208,0.0023513-0.0017576,0.0034885
			v0.0017567c0.0011368-0.0011368,0.002326-0.0028939,0.0034885-0.0052452V4.9884138
			c0-0.0011625,0.0005941-0.0017571,0.0017567-0.0017571l0.0034628-0.0034623l0.0000257-0.0000515l0.0007877-0.0007749
			c0.0008039-0.001667,0.0016861-0.0036144,0.0027256-0.0062013c0.001092-0.0022349,0.0016413-0.0041924,0.0016899-0.0058818
			c0.0006037-0.0026999,0.0011978-0.0051093,0.0017986-0.0081224c-0.0011625,0.0034881-0.0017309,0.0061235-0.0017309,0.0078802
			c0,0.0000682-0.0000648,0.0001745-0.0000677,0.0002422c-0.0005655,0.0025325-0.0011406,0.0053744-0.0016899,0.0076127
			c-0.0011883,0.0046768-0.0029192,0.0093536-0.0052452,0.0140042c-0.0011883,0.0058398-0.0035133,0.0104904-0.0070019,0.0140047
			c-0.0011883,0.0023251-0.0017567,0.0043664-0.0017567,0.0060978c0,0.0017567-0.0011625,0.0032296-0.0034885,0.0043921
			c-0.0023508,0.0023513-0.0041084,0.0046768-0.0052452,0.0070024c-0.0046768,0.0034881-0.0093527,0.0072865-0.0140038,0.0113688
			c-0.0046768,0.0040827-0.009922,0.0072865-0.0157356,0.0096121h0.0052452
			c0.0023251-0.001163,0.0040827-0.0017571,0.0052452-0.0017571c0.0011368-0.0011368,0.0020151-0.0017571,0.002635-0.0017571
			c0.0005684,0,0.0014477-0.0005684,0.0026102-0.0017309c0.0035133-0.0046511,0.0093269-0.0110846,0.0174923-0.0192494
			c0.0058136-0.0046511,0.0098963-0.0104904,0.0122471-0.0174928c0.002326-0.0023255,0.0037727-0.0052452,0.0043669-0.0087333
			c0.0005684-0.0035138,0.0020409-0.0070024,0.0043926-0.0105162c0.0022993-0.0058136,0.0046244-0.0119371,0.0069761-0.0183449
			c0.0023251-0.0064082,0.0040827-0.0125318,0.0052452-0.0183711V4.9411817V4.9359365l0.0017567-0.0017571v0.0017571v0.0052452
			v0.0052452c-0.0011625,0.0011625-0.0017567,0.0046768-0.0017567,0.0104904
			c-0.0023518,0.0058393-0.0040827,0.0104899-0.0052452,0.0140042c-0.0011625,0.0034881-0.0023518,0.0075965-0.0034885,0.0122213
			c-0.0023508,0.0046768-0.0043659,0.0090694-0.0061235,0.0131259c-0.0017567,0.0041084-0.0037975,0.0073123-0.0061235,0.0096378
			c-0.0058393,0.0104899-0.0122471,0.0180864-0.019249,0.0227375h0.0017567h0.0034885L13.193059,5.030375
			c0.0011368,0,0.0017319-0.0002584,0.0017319-0.0008783c0-0.0005684,0.0005941-0.0008526,0.0017567-0.0008526L13.1947908,5.030375
			c-0.0011635,0-0.0017319,0.0003104-0.0017319,0.0008788c0,0.0001483-0.0007296,0.0001097-0.0008783,0.0002193
			C13.190443,5.0323486,13.189455,5.0343122,13.188405,5.0361986c-0.0002651,0.0007782-0.0005913,0.0013723-0.0005913,0.0029359
			c-0.0023508,0.0023513-0.0081902,0.0058393-0.0174923,0.0104899c0.0011368-0.0011368,0.002326-0.0017567,0.0034885-0.0017567
			c0.0011368,0,0.0028934-0.0005684,0.0052452-0.0017314c0.0011625-0.0011625,0.0028934-0.0017567,0.0052452-0.0017567
			c0.0023251-0.001163,0.0037718-0.0017571,0.0043926-0.0017571c0.0005684,0,0.0020151-0.0005684,0.0043659-0.0017571
			c0.0011368,0,0.0005684,0.0008783-0.0017567,0.0026355c-0.0023518,0.0017571-0.0041084,0.0032301-0.0052452,0.0043669
			c-0.0023508,0.0023513-0.0041084,0.004108-0.0052452,0.0052452c-0.0011883,0.0011883-0.0029192,0.0029454-0.0052452,0.0052452
			c-0.0011883,0-0.0020666,0.0006199-0.002635,0.0017567c-0.0005951,0.0011888-0.0020418,0.0017571-0.0043669,0.0017571
			c-0.0011883,0.0011625-0.0020418,0.0017571-0.0020418,0.0017571s-0.0020666,0.0011625-0.0032034,0.0034881
			c-0.0023518,0-0.0046768,0.0005941-0.0070019,0.0017567h-0.0052452c-0.0011635,0.001163-0.0029202,0.0017314-0.0052452,0.0017314
			h-0.0017576c-0.0023508,0-0.0040817,0.0006199-0.0052452,0.0017571h-0.0070019H13.128334h-0.0017567h-0.0017309h-0.0035143
			H13.116087c-0.0023508,0-0.0034876-0.0002842-0.0034876-0.0008788c0-0.0005684-0.0011892-0.0008783-0.0035143-0.0008783
			c-0.0034885,0-0.0064077-0.0005684-0.0087337-0.0017314H13.096838c-0.0011625,0-0.0020418-0.0002842-0.0026102-0.0008783
			c-0.0005941-0.0005684-0.0014725-0.0008783-0.002635-0.0008783c-0.0023518-0.0023255-0.0040827-0.0034881-0.0052452-0.0034881
			s-0.0029202-0.0005946-0.0052452-0.0017571c-0.0046768-0.0023255-0.0104904-0.0070024-0.0174923-0.0140042
			c-0.0011635-0.0011368-0.0020418-0.0017314-0.0026102-0.0017314c-0.0006199,0-0.0014982-0.0005941-0.002635-0.0017567
			c0.0023251-0.0023255,0.0011368-0.0035143-0.0034885-0.0035143c-0.0011883-0.0011368-0.0017567-0.0026097-0.0017567-0.0043664
			c0-0.0017314-0.0005941-0.0032043-0.0017576-0.0043669l-0.0034876-0.0034881
			c-0.0023518-0.0046511-0.0037985-0.0090175-0.0043669-0.0131259c-0.0006199-0.0040822-0.0014982-0.0078807-0.002635-0.0113688
			c-0.0011377-0.0046511-0.0017576-0.0122476-0.0017576-0.0227375V4.958674z M12.5466385,4.8492751
			c0.002326-0.0046511,0.0035143-0.0081649,0.0035143-0.0105162V4.8352709l0.0017309-0.0034881V4.8282685V4.8230233
			l0.0035143-0.0034881c0-0.0011625,0.0002584-0.0023255,0.0008783-0.0035138
			c0.0005684-0.0011368,0.0008526-0.0028939,0.0008526-0.0052452c0.0011625-0.0034881,0.0020418-0.0066919,0.002636-0.0096121
			c0.0005684-0.0028934,0.0014467-0.0061235,0.002635-0.0096116l0.0174923-0.0349851
			c0.0058136-0.0140042,0.0128164-0.0256572,0.0209808-0.0349851c0.0034885-0.0046506,0.0075712-0.0093274,0.0122471-0.0140042
			c0.0046511-0.0046506,0.0093279-0.0093274,0.013979-0.0139785c0.0093279-0.0070019,0.0163298-0.0116529,0.0210066-0.0140042
			c0.0046511-0.0023255,0.0081387-0.0034881,0.0104904-0.0034881h0.0017567l0.0017309-0.0017571h0.0017576h0.0087585h0.0017319
			h0.0035133h0.0052452h0.0052452h0.0017567h0.0034885c0.0081387,0.001163,0.0157356,0.0046768,0.0227375,0.0104904
			c0.0011368,0,0.0017576,0.0005941,0.0017576,0.0017571c0,0.0011625,0.0005684,0.0017309,0.0017309,0.0017309
			c0.0011625,0.0011888,0.0020409,0.0017571,0.002635,0.0017571c0,0,0.0014477,0.0005941,0.002636,0.0017571l0.0017309,0.0017567
			c0,0.001163,0.0005684,0.0023255,0.0017567,0.0034885c0,0.0011625,0.0005684,0.0017567,0.0017576,0.0017567l0.0034876,0.0017314
			l0.0034885,0.0035138v0.0034881c0.0011625,0.0058393,0.0029202,0.0093536,0.005271,0.0104904
			c0.0022993,0.0058651,0.003747,0.0116787,0.0043669,0.0174923c0.0005684,0.0058656,0.0008783,0.0104904,0.0008783,0.0140047
			c0,0.0093532-0.0011883,0.0186548-0.0035143,0.0279827v0.0122471c-0.0023508,0.0023513-0.0034876,0.0046768-0.0034876,0.0070024
			c0,0.0023513-0.0005941,0.0034881-0.0017576,0.0034881V4.7950406c-0.0011625-0.0011368-0.0017567-0.0005684-0.0017567,0.0017571
			c0,0.0023513-0.0005941,0.0034881-0.0017309,0.0034881V4.7932835c0,0.0035143-0.0006208,0.0052452-0.0017576,0.0052452
			c0,0.0023513-0.0011625,0.0041084-0.0034876,0.005271v0.0052452c0-0.0023251-0.0003099-0.0029197-0.0008783-0.0017567
			c-0.0005951,0.0011625-0.0008793,0.0023513-0.0008793,0.0034881c-0.0011883,0-0.0011883-0.0005684,0-0.0017314
			c-0.0011883-0.0011625-0.0017567-0.0005941-0.0017567,0.0017314V4.81429L12.72332,4.805531V4.81429
			c-0.0011883,0.0023513-0.0017567,0.0046768-0.0017567,0.0069766c0,0.0011883-0.0005941,0.0017567-0.0017567,0.0017567
			c-0.0023518,0.018681-0.0064077,0.0349851-0.0122213,0.0489893c-0.0058661,0.0128417-0.0140047,0.0244946-0.0244951,0.0349851
			S12.6580019,4.9233274,12.6393461,4.92449h0.0070019h0.0070028c0.0011368-0.0011625,0.0023251-0.0017567,0.0034876-0.0017567
			c0.0011635,0,0.002326-0.0005684,0.0035143-0.0017571c0.0023251,0.0023513,0.006382,0.0017571,0.0122471-0.0017314
			l0.0034885-0.0017567h0.0017567c0.0011368-0.001163,0.0028944-0.0017571,0.0052452-0.0017571
			c-0.0023508,0.0023513-0.0046768,0.0041084-0.0070019,0.0052452c0.0011368,0,0.0023251-0.0005684,0.0034876-0.0017314h0.0017576
			l0.0034876-0.0035138L12.6865788,4.914c0.0011625,0,0.0017567-0.001163,0.0017567-0.0035143h0.0017567l0.0034885-0.0034881
			l0.0034885-0.0017571c0.0080099-0.0090079,0.0129023-0.0169821,0.0157614-0.0242782V4.879015
			c0-0.001163,0.0005684-0.0017571,0.0017309-0.0017571c-0.0003328,0.001153-0.0012598,0.0025063-0.0017309,0.0037045V4.882503
			c0,0.0011625-0.0006208,0.0023513-0.0017576,0.0034881v0.0017571c0.0011368-0.0011368,0.002326-0.0028939,0.0034885-0.0052452
			V4.879015c0-0.001163,0.0005941-0.0017571,0.0017567-0.0017571l0.0034628-0.0034623l0.0000257-0.0000515l0.0007877-0.0007753
			c0.0008039-0.0016665,0.0016861-0.0036139,0.0027256-0.0062013c0.001092-0.0022349,0.0016413-0.0041919,0.0016899-0.0058813
			c0.0006037-0.0026999,0.0011978-0.0051093,0.0017986-0.0081229c-0.0011625,0.0034881-0.0017309,0.0061235-0.0017309,0.0078807
			c0,0.0000677-0.0000648,0.0001745-0.0000677,0.0002422c-0.0005655,0.002532-0.0011406,0.0053744-0.0016899,0.0076127
			c-0.0011883,0.0046768-0.0029192,0.0093532-0.0052443,0.0140042c-0.0011892,0.0058393-0.0035143,0.0104904-0.0070028,0.0140042
			c-0.0011883,0.0023255-0.0017567,0.0043669-0.0017567,0.0060978c0,0.0017571-0.0011625,0.0032301-0.0034885,0.0043926
			C12.7034769,4.909349,12.7017193,4.9116745,12.7005825,4.914c-0.0046768,0.0034881-0.0093527,0.0072861-0.0140038,0.0113688
			c-0.0046768,0.0040822-0.009922,0.0072861-0.0157356,0.0096116h0.0052452
			c0.0023251-0.0011625,0.0040827-0.0017571,0.0052452-0.0017571c0.0011368-0.0011368,0.0020151-0.0017567,0.002635-0.0017567
			c0,0,0.0014477-0.0005684,0.0026102-0.0017314c0.0035133-0.0046506,0.0093269-0.0110846,0.0174923-0.0192494
			c0.0058136-0.0046506,0.0098963-0.0104904,0.0122471-0.0174923c0.002326-0.0023255,0.0037727-0.0052452,0.0043669-0.0087333
			c0.0005684-0.0035143,0.0020409-0.0070024,0.0043926-0.0105162c0.0022993-0.0058136,0.0046253-0.0119371,0.0069761-0.0183454
			c0.0023251-0.0064077,0.0040827-0.0125313,0.0052452-0.0183706V4.8317828V4.8265376l0.0017567-0.0017571v0.0017571v0.0052452
			V4.837028C12.7378931,4.8381906,12.737299,4.8417044,12.737299,4.847518
			c-0.0023518,0.0058393-0.0040827,0.0104904-0.0052452,0.0140042c-0.0011625,0.0034885-0.0023508,0.0075965-0.0034885,0.0122218
			c-0.0023508,0.0046768-0.0043659,0.009069-0.0061235,0.0131259c-0.0017567,0.004108-0.0037975,0.0073118-0.0061235,0.0096374
			c-0.0058393,0.0104904-0.0122471,0.0180869-0.019249,0.0227375h0.0017567h0.0034885l-0.0017319,0.0017314
			c0.0011368,0,0.0017319-0.0002584,0.0017319-0.0008783c0-0.0005684,0.0005941-0.0008531,0.0017567-0.0008531l-0.0017567,0.0017314
			c-0.0011635,0-0.0017319,0.0003099-0.0017319,0.0008783c0,0.0001488-0.0007296,0.0001101-0.0008783,0.0002198
			c-0.0017376,0.000875-0.0027256,0.0028391-0.0037756,0.004725c-0.0002651,0.0007787-0.0005913,0.0013728-0.0005913,0.0029359
			c-0.0023508,0.0023513-0.0081902,0.0058393-0.0174923,0.0104904c0.0011368-0.0011368,0.002326-0.0017571,0.0034885-0.0017571
			c0.0011368,0,0.0028934-0.0005684,0.0052452-0.0017309c0.0011625-0.001163,0.0028934-0.0017571,0.0052452-0.0017571
			c0.0023251-0.0011625,0.0037718-0.0017571,0.0043926-0.0017571c0,0,0.0020151-0.0005684,0.0043659-0.0017567
			c0.0011368,0,0.0005684,0.0008783-0.0017567,0.0026355c-0.0023508,0.0017571-0.0041084,0.0032296-0.0052452,0.0043664
			c-0.0023508,0.0023513-0.0041084,0.0041084-0.0052452,0.0052452c-0.0011883,0.0011888-0.0029192,0.0029459-0.0052452,0.0052452
			c-0.0011883,0-0.0020666,0.0006204-0.002635,0.0017571c-0.0005951,0.0011883-0.0020418,0.0017571-0.0043669,0.0017571
			c-0.0011883,0.0011625-0.0020418,0.0017567-0.002636,0.0017567s-0.0014725,0.001163-0.0026093,0.0034881
			c-0.0023518,0-0.0046768,0.0005946-0.0070019,0.0017571H12.658596c-0.0011635,0.001163-0.0029202,0.0017314-0.0052452,0.0017314
			h-0.0017576c-0.0023508,0-0.0040817,0.0006199-0.0052452,0.0017567h-0.0070019h-0.0034876h-0.0017576H12.63237h-0.0035143
			h-0.0052452c-0.0023508,0-0.0034876-0.0002842-0.0034876-0.0008783c0-0.0005684-0.0011892-0.0008783-0.0035143-0.0008783
			c-0.0034885,0-0.0064077-0.0005684-0.0087337-0.0017314h-0.0035133c-0.0011625,0-0.0020418-0.0002842-0.0026102-0.0008783
			c-0.0005941-0.0005684-0.0014725-0.0008788-0.002635-0.0008788c-0.0023518-0.0023251-0.0040827-0.0034881-0.0052452-0.0034881
			s-0.0029202-0.0005941-0.0052452-0.0017567c-0.0046768-0.0023255-0.0104904-0.0070024-0.0174923-0.0140047
			c-0.0011625-0.0011368-0.0020418-0.0017309-0.0026102-0.0017309c-0.0006199,0-0.0014982-0.0005941-0.002635-0.0017571
			c0.0023251-0.0023255,0.0011368-0.0035138-0.0034885-0.0035138c-0.0011883-0.0011368-0.0017567-0.0026097-0.0017567-0.0043669
			c0-0.0017309-0.0005941-0.0032039-0.0017567-0.0043664L12.555398,4.9192448
			c-0.0023518-0.0046506-0.0037985-0.0090175-0.0043669-0.0131254c-0.0006199-0.0040827-0.0014982-0.0078807-0.002635-0.0113688
			c-0.0011368-0.0046511-0.0017576-0.0122476-0.0017576-0.022738V4.8492751z M12.1523123,5.852612
			c0.0047054,0.0049253,0.0078259,0.0118337,0.0085526,0.0212774l0.0018053,0.0233707
			C12.1614237,5.8811212,12.1574697,5.8665061,12.1523123,5.852612z M12.1474314,5.2954526
			c0.0040245,0.052074,0.0053654,0.1040668,0.0042343,0.1562533c-0.001298,0.052484,0.0002327,0.1044641,0.004241,0.1563473
			c0.0036144,0.0467701,0.0072222,0.0934405,0.0108232,0.140059c-0.0160551-0.0716944-0.0200796-0.123765-0.0120277-0.1556458
			c-0.0024061-0.0311675-0.0074768-0.0621281-0.0150089-0.0928044c-0.0077286-0.0307574-0.0074768-0.0621314,0.0005751-0.0940123
			C12.1354523,5.3433146,12.1377878,5.306715,12.1474314,5.2954526z"/>
		<path class="st0" d="M13.219285,4.8659668V4.8589644l-0.0017309-0.0035138
			c0.0011368,0.0023513,0.0017309,0.0070019,0.0017309,0.0140042C13.219285,4.868289,13.2198668,4.8677106,13.219285,4.8659668z"/>
		<polygon class="st0" points="13.1895456,5.0321321 13.1921806,5.0314732 13.193059,5.030375 13.1913023,5.0312538 		"/>
		<polygon class="st0" points="13.1895456,5.0321321 13.1860571,5.0391345 13.188405,5.0361986 13.188693,5.0347676 		"/>
		<path class="st0" d="M12.4262648,6.1628642l0.040082,0.0162587c-0.0007849-0.0101676-0.0066118-0.01507-0.0167789-0.0142856
			C12.4393358,6.1656289,12.431633,6.1649442,12.4262648,6.1628642z"/>
		<polygon class="st0" points="13.1545601,5.0461364 13.1510725,5.046989 13.147584,5.0478678 13.1440697,5.0478678 
			13.1405821,5.0496244 13.1353369,5.0496244 13.1335793,5.0496244 13.1335793,5.053113 13.1370678,5.053113 13.1440697,5.0496244 
			13.147584,5.0496244 13.1528292,5.0478678 13.157196,5.0461364 13.1633196,5.0443797 13.1589527,5.045258 		"/>
		<polygon class="st0" points="13.2140398,4.9814119 13.2130709,4.982368 13.2130585,4.9823937 		"/>
	</g>
	<g>
		<path class="st0" d="M7.4584308,14.5468178h0.2519889l-0.0131998,0.0670786H7.3796067l0.1178317-0.5934172h0.0656242
			L7.4584308,14.5468178z"/>
		<path class="st0" d="M7.9024425,14.1838923h0.0610981l-0.0852895,0.4300041H7.817153L7.9024425,14.1838923z M7.9311595,14.0204792
			h0.0686951l-0.0150323,0.0774231H7.9161277L7.9311595,14.0204792z"/>
		<path class="st0" d="M8.1483974,14.1838923l0.0061417-0.0309801c0.0158939-0.0816793,0.0561419-0.1324329,0.1424551-0.1324329
			H8.314558l-0.0131998,0.0653543H8.2861099c-0.0496216,0-0.0608282,0.0189657-0.0731125,0.0799561l-0.0035019,0.0181026h0.0725203
			l-0.0122843,0.0619068H8.1972113l-0.0730591,0.3680973H8.0631075l0.0730057-0.3680973H8.087245l0.0122843-0.0619068H8.1483974z"/>
		<path class="st0" d="M8.6168156,14.5494032c-0.0380383,0.0524244-0.0836191,0.0713892-0.1454716,0.0713892
			c-0.0915928,0-0.1530142-0.0748367-0.1292543-0.1943398l0.0113688-0.0567875
			c0.024622-0.1221418,0.0890608-0.1926689,0.1891127-0.1926689c0.1007528,0,0.135397,0.0791473,0.1132526,0.1926689
			l-0.008728,0.0447187H8.4057741l-0.0025864,0.0120687c-0.0156784,0.0739212,0.0079203,0.1324339,0.0735979,0.1324339
			c0.0473595,0,0.0738134-0.0180492,0.0968199-0.0498915L8.6168156,14.5494032z M8.417304,14.3541479h0.1794147
			c0.0134163-0.0739746,0.0015087-0.1151915-0.0626602-0.1151915C8.4638014,14.2389565,8.4351921,14.2818975,8.417304,14.3541479z"
			/>
		<path class="st0" d="M9.0360975,14.2844839c-0.0144396-0.0317888-0.0331888-0.0438032-0.0858822-0.0438032
			c-0.0511847,0-0.08599,0.0180492-0.0872288,0.0653c-0.0011854,0.0456352,0.0230055,0.0550642,0.0762911,0.060236
			c0.0624456,0.0060349,0.1175632,0.0318422,0.1155157,0.1083498c-0.0023165,0.0894918-0.0580807,0.1462259-0.1718187,0.1462259
			c-0.0779076,0-0.1130905-0.0266695-0.1332951-0.0713892l0.0521545-0.0360985
			c0.0144396,0.0309801,0.0392771,0.0438576,0.0942335,0.0438576c0.0572729,0,0.094449-0.0180492,0.09585-0.0705271
			c0.0010767-0.0421867-0.0230608-0.0542021-0.0786629-0.0584583c-0.0633068-0.0051718-0.1151924-0.0352898-0.1131449-0.113575
			c0.0020475-0.0782318,0.0601282-0.1376057,0.1640062-0.1376057c0.0617981,0,0.1040926,0.0180492,0.124836,0.0713892
			L9.0360975,14.2844839z"/>
		<path class="st0" d="M9.222086,14.1838923h0.0488672l0.019289-0.0946102h0.0610981l-0.019289,0.0946102h0.087822
			l-0.0123386,0.0619068H9.319767l-0.04321,0.2184229c-0.0123386,0.0645466-0.0106144,0.0843191,0.0405703,0.0843191h0.030549
			l-0.0131464,0.0653553H9.3017178c-0.0801706,0-0.1063557-0.0498381-0.0897074-0.1324339l0.0466585-0.2356634H9.2098017
			L9.222086,14.1838923z"/>
		<path class="st0" d="M9.5719175,14.6173439l-0.0626602-0.4334517h0.0633612l0.0477362,0.335393l0.1652985-0.335393h0.0679407
			L9.6319923,14.627635c-0.0515614,0.1032848-0.0825958,0.1496744-0.1894903,0.1496744l0.0132542-0.0670252
			c0.0503759,0,0.0773697-0.0103445,0.1129827-0.0860434L9.5719175,14.6173439z"/>
		<path class="st0" d="M10.0022449,14.0204792h0.0610981L9.975359,14.464222
			c-0.01056,0.0542011-0.0144396,0.0860434,0.0481672,0.0860434l-0.013092,0.0636311
			c-0.0824881,0-0.116539-0.042079-0.0989208-0.1324339L10.0022449,14.0204792z"/>
		<path class="st0" d="M10.441246,14.5494032c-0.0380383,0.0524244-0.0836201,0.0713892-0.1454716,0.0713892
			c-0.0915937,0-0.1530151-0.0748367-0.1292543-0.1943398l0.0113678-0.0567875
			c0.0246229-0.1221418,0.0890608-0.1926689,0.1891136-0.1926689c0.1007519,0,0.135396,0.0791473,0.1132517,0.1926689
			l-0.008728,0.0447187h-0.2413216l-0.0025854,0.0120687c-0.0156794,0.0739212,0.0079193,0.1324339,0.0735979,0.1324339
			c0.0473585,0,0.0738134-0.0180492,0.0968189-0.0498915L10.441246,14.5494032z M10.2417336,14.3541479h0.1794157
			c0.0134153-0.0739746,0.0015087-0.1151915-0.0626612-0.1151915
			C10.2882309,14.2389565,10.2596216,14.2818975,10.2417336,14.3541479z"/>
		<path class="st0" d="M10.9265823,14.1838923h0.0610981l-0.0853434,0.4300041h-0.0610447L10.9265823,14.1838923z
			 M10.9552994,14.0204792h0.0686951l-0.0150328,0.0774231h-0.0686941L10.9552994,14.0204792z"/>
		<path class="st0" d="M11.3523293,14.2844839c-0.0144396-0.0317888-0.0331888-0.0438032-0.0858822-0.0438032
			c-0.0511847,0-0.08599,0.0180492-0.0872288,0.0653c-0.0011854,0.0456352,0.0230055,0.0550642,0.0762911,0.060236
			c0.0624456,0.0060349,0.1175632,0.0318422,0.1155157,0.1083498c-0.0023174,0.0894918-0.0580807,0.1462259-0.1718187,0.1462259
			c-0.0779076,0-0.1130905-0.0266695-0.1332951-0.0713892l0.0521545-0.0360985
			c0.0144396,0.0309801,0.0392771,0.0438576,0.0942335,0.0438576c0.0572729,0,0.094449-0.0180492,0.095849-0.0705271
			c0.0010777-0.0421867-0.0230598-0.0542021-0.0786619-0.0584583c-0.0633068-0.0051718-0.1151924-0.0352898-0.1131449-0.113575
			c0.0020475-0.0782318,0.0601282-0.1376057,0.1640062-0.1376057c0.0617981,0,0.1040926,0.0180492,0.124836,0.0713892
			L11.3523293,14.2844839z"/>
		<path class="st0" d="M12.0590515,14.1838923h0.0610981l-0.0835648,0.4213829
			c-0.0255384,0.1290932-0.0878763,0.177206-0.1901913,0.177206c-0.0687485,0-0.1063557-0.0206356-0.1279068-0.072197
			l0.0520458-0.0352898c0.0144396,0.0327034,0.0346985,0.0455809,0.0843744,0.0455809
			c0.0763454,0,0.1049004-0.0412712,0.1205797-0.1153002l0.0060883-0.0292015
			c-0.0267782,0.0300636-0.0584583,0.0447187-0.1042547,0.0447187c-0.1000528,0-0.1433172-0.0954723-0.1231661-0.1943398
			l0.0113678-0.0567875c0.0246229-0.123004,0.0913782-0.1926689,0.1913767-0.1926689
			c0.0504303,0,0.0796318,0.0214977,0.0934248,0.0498915L12.0590515,14.1838923z M12.0107231,14.4264526l0.0113678-0.0567875
			c0.0176182-0.0886297-0.0087814-0.1307087-0.0713882-0.1307087c-0.0710115,0-0.1074333,0.048975-0.1240826,0.1307087
			l-0.0113678,0.0567875c-0.014924,0.0730591,0.0025864,0.1324339,0.0735979,0.1324339
			C11.9660034,14.5588865,11.9949369,14.5046844,12.0107231,14.4264526z"/>
		<path class="st0" d="M12.5291948,14.4264526c-0.0228443,0.1135225-0.0792017,0.1943398-0.1945009,0.1943398
			c-0.0893307,0-0.1460104-0.079093-0.1231661-0.1943398l0.0113678-0.0567875
			c0.0264549-0.1324329,0.0967121-0.1926689,0.196764-0.1926689c0.1015072,0,0.1446638,0.0748367,0.120903,0.1926689
			L12.5291948,14.4264526z M12.4680967,14.4264526l0.0113678-0.0567875
			c0.0185347-0.0938025-0.0095358-0.1307087-0.0721426-0.1307087s-0.1047935,0.0369062-0.1233282,0.1307087l-0.0113678,0.0567875
			c-0.0158405,0.0790939,0.0049028,0.1324339,0.0713348,0.1324339
			C12.416481,14.5588865,12.4522562,14.5064087,12.4680967,14.4264526z"/>
		<path class="st0" d="M12.966795,14.4264526c-0.0228443,0.1135225-0.0792017,0.1943398-0.1945009,0.1943398
			c-0.0893307,0-0.1460104-0.079093-0.1231661-0.1943398l0.0113678-0.0567875
			c0.0264549-0.1324329,0.0967121-0.1926689,0.196764-0.1926689c0.1015072,0,0.1446638,0.0748367,0.120903,0.1926689
			L12.966795,14.4264526z M12.9056969,14.4264526l0.0113678-0.0567875c0.0185347-0.0938025-0.0095358-0.1307087-0.0721426-0.1307087
			s-0.1047935,0.0369062-0.1233282,0.1307087l-0.0113678,0.0567875c-0.0158405,0.0790939,0.0049028,0.1324339,0.0713348,0.1324339
			C12.8540812,14.5588865,12.8898563,14.5064087,12.9056969,14.4264526z"/>
		<path class="st0" d="M13.4233599,14.0204792h0.0610447l-0.1178322,0.5934172h-0.0610447l0.0070581-0.0378227
			c-0.0236521,0.0292015-0.0569487,0.0447187-0.1019917,0.0447187c-0.0992441,0-0.1456871-0.0911617-0.1246738-0.1943398
			l0.0113678-0.0567875c0.0262928-0.1298466,0.0967121-0.1926689,0.1891136-0.1926689
			c0.0496216,0,0.083457,0.0206356,0.0956879,0.0498915L13.4233599,14.0204792z M13.3415728,14.4324331l0.0122843-0.062768
			c0.0176725-0.0894918-0.0087824-0.1307087-0.0713892-0.1307087c-0.0648689,0-0.1056013,0.0394926-0.1240816,0.1307087
			l-0.0113688,0.0567875c-0.0158396,0.0790939,0.0064116,0.1324339,0.0735979,0.1324339
			C13.2893648,14.5588865,13.3248167,14.5158911,13.3415728,14.4324331z"/>
		<path class="st0" d="M13.6002426,14.6138964h-0.0885754l0.0201502-0.0997295h0.0885763L13.6002426,14.6138964z"/>
	</g>
</g>
</svg>
